<svg xmlns="http://www.w3.org/2000/svg" viewBox="0 0 36.59 36.59"><defs><style>.b040882d-e067-44ef-aa3b-cb9150ef775c{fill:#fff;}.a04c480d-fb73-4429-9b2e-9e6f2c3dd045{fill:#f18318;}.a9312c2a-0a86-4a56-ae0f-a736aaa1dfe6{fill:#1d1d1b;}</style></defs><title>15</title><g id="b7333242-9782-49ac-946f-79ce5fb2e9ca" data-name="Livello 2"><g id="b903df9a-5b6c-4294-96ed-786e646598e2" data-name="Livello 1"><circle class="b040882d-e067-44ef-aa3b-cb9150ef775c" cx="18.3" cy="18.3" r="16.3"/><path class="a04c480d-fb73-4429-9b2e-9e6f2c3dd045" d="M18.3,36.59A18.3,18.3,0,1,1,36.59,18.3,18.31,18.31,0,0,1,18.3,36.59ZM18.3,4A14.3,14.3,0,1,0,32.59,18.3,14.31,14.31,0,0,0,18.3,4Z"/><path class="a9312c2a-0a86-4a56-ae0f-a736aaa1dfe6" d="M12.74,16.37H11.42v-2H15.1v9H12.74Z"/><path class="a9312c2a-0a86-4a56-ae0f-a736aaa1dfe6" d="M24.44,16.37H21.31l-.15,1,.39-.05h.37a3.39,3.39,0,0,1,1.28.24,3,3,0,0,1,1.66,1.66,3.4,3.4,0,0,1,.24,1.29,3.11,3.11,0,0,1-.27,1.32,2.86,2.86,0,0,1-.76,1,3.44,3.44,0,0,1-1.2.64,5.46,5.46,0,0,1-1.57.22,6,6,0,0,1-1.55-.2,4.67,4.67,0,0,1-1.39-.61l.35-2.2a5,5,0,0,0,1.22.78,3,3,0,0,0,1.19.27,1.61,1.61,0,0,0,1.14-.39,1.26,1.26,0,0,0,.42-1,1.31,1.31,0,0,0-.56-1.09,2.42,2.42,0,0,0-1.48-.41,4.14,4.14,0,0,0-.84.09,3.85,3.85,0,0,0-.85.28l.75-4.86h4.74Z"/></g></g></svg>