<svg xmlns="http://www.w3.org/2000/svg" viewBox="0 0 36.59 36.59"><defs><style>.aecf3efd-2fb4-495f-ab4d-3ce075e20065{fill:#fff;}.fffda70b-77ca-447d-af80-4fbc29dd0d2c{fill:#f18318;}.ae9bb7df-531c-4b82-b383-df044f0e8fb8{fill:#1d1d1b;}</style></defs><title>3</title><g id="b87eb322-c2fe-4dc0-9831-6dffa489ebd2" data-name="Livello 2"><g id="eff3e307-2bf2-45cf-a34b-42ed0bde5719" data-name="Livello 1"><circle class="aecf3efd-2fb4-495f-ab4d-3ce075e20065" cx="18.3" cy="18.3" r="16.3"/><path class="fffda70b-77ca-447d-af80-4fbc29dd0d2c" d="M18.3,36.59A18.3,18.3,0,1,1,36.59,18.3,18.31,18.31,0,0,1,18.3,36.59ZM18.3,4A14.3,14.3,0,1,0,32.59,18.3,14.31,14.31,0,0,0,18.3,4Z"/><path class="ae9bb7df-531c-4b82-b383-df044f0e8fb8" d="M17.23,17.91h.28a1,1,0,0,0,.72-.27,1,1,0,0,0,0-1.34.93.93,0,0,0-.67-.25.89.89,0,0,0-.7.29,1.08,1.08,0,0,0-.26.74H14.45a3.77,3.77,0,0,1,.35-1.26,3,3,0,0,1,.69-.93,3,3,0,0,1,1-.58,3.75,3.75,0,0,1,1.24-.19,3.86,3.86,0,0,1,1.22.18,2.77,2.77,0,0,1,.94.53,2.27,2.27,0,0,1,.6.83,2.67,2.67,0,0,1,.21,1.08,2,2,0,0,1-.25,1.07,2.25,2.25,0,0,1-.7.71,2,2,0,0,1,1.09.77,2.36,2.36,0,0,1,.39,1.38A2.73,2.73,0,0,1,21,21.9a2.63,2.63,0,0,1-.74,1,3.36,3.36,0,0,1-1.12.61,4.44,4.44,0,0,1-1.44.22,4.29,4.29,0,0,1-1.88-.41A3.07,3.07,0,0,1,14.42,22a2.47,2.47,0,0,1-.3-.79,4.26,4.26,0,0,1-.08-.8h2.33a1.32,1.32,0,0,0,.37,1,1.3,1.3,0,0,0,.94.33,1.15,1.15,0,0,0,.91-.33,1.25,1.25,0,0,0,.29-.83,1.12,1.12,0,0,0-.35-.89,1.23,1.23,0,0,0-.83-.3l-.23,0-.24,0Z"/></g></g></svg>