<svg xmlns="http://www.w3.org/2000/svg" viewBox="0 0 36.59 36.59"><defs><style>.b35335f4-1419-42d6-ab85-853b2fd3ce52{fill:#fff;}.b5f598bc-2827-435b-b053-f10c801ee3f9{fill:#f18318;}.ab5f59d3-0113-459f-a26b-1a6c1e785d1a{fill:#1d1d1b;}</style></defs><title>33</title><g id="b4a0f105-d040-4a5f-81ae-65f976e07acd" data-name="Livello 2"><g id="ff900d1c-fc51-430c-985c-049b6136962d" data-name="Livello 1"><circle class="b35335f4-1419-42d6-ab85-853b2fd3ce52" cx="18.3" cy="18.3" r="16.3"/><path class="b5f598bc-2827-435b-b053-f10c801ee3f9" d="M18.3,36.59A18.3,18.3,0,1,1,36.59,18.3,18.31,18.31,0,0,1,18.3,36.59ZM18.3,4A14.3,14.3,0,1,0,32.59,18.3,14.31,14.31,0,0,0,18.3,4Z"/><path class="ab5f59d3-0113-459f-a26b-1a6c1e785d1a" d="M12.77,16.91h.28a1,1,0,0,0,.72-.27.87.87,0,0,0,.28-.68.9.9,0,0,0-.26-.66.91.91,0,0,0-.67-.25.85.85,0,0,0-.69.29,1,1,0,0,0-.27.74H10a4.31,4.31,0,0,1,.35-1.26,2.85,2.85,0,0,1,.7-.93,2.9,2.9,0,0,1,1-.58,3.77,3.77,0,0,1,1.25-.19,3.84,3.84,0,0,1,1.21.18,2.77,2.77,0,0,1,.94.53,2.27,2.27,0,0,1,.6.83,2.67,2.67,0,0,1,.21,1.08A2,2,0,0,1,16,16.82a2.15,2.15,0,0,1-.7.71,2,2,0,0,1,1.09.77,2.36,2.36,0,0,1,.39,1.38,2.74,2.74,0,0,1-1,2.17,3.51,3.51,0,0,1-1.13.61,4.44,4.44,0,0,1-1.44.22,4.29,4.29,0,0,1-1.88-.41A3,3,0,0,1,10,21a2.28,2.28,0,0,1-.31-.79,4.26,4.26,0,0,1-.08-.8h2.33a1.36,1.36,0,0,0,.37,1,1.31,1.31,0,0,0,.94.33,1.15,1.15,0,0,0,.91-.33,1.25,1.25,0,0,0,.29-.83,1.12,1.12,0,0,0-.35-.89,1.23,1.23,0,0,0-.83-.3l-.23,0-.24,0Z"/><path class="ab5f59d3-0113-459f-a26b-1a6c1e785d1a" d="M21.69,16.91H22a1,1,0,0,0,.72-.27A.9.9,0,0,0,23,16a.86.86,0,0,0-.26-.66,1,1,0,0,0-1.36,0,1.08,1.08,0,0,0-.26.74H18.91a3.77,3.77,0,0,1,.35-1.26A3,3,0,0,1,20,13.9a3.1,3.1,0,0,1,1-.58,4.22,4.22,0,0,1,2.47,0,2.87,2.87,0,0,1,.94.53,2.27,2.27,0,0,1,.6.83,2.67,2.67,0,0,1,.21,1.08,2.12,2.12,0,0,1-.25,1.07,2.25,2.25,0,0,1-.7.71,2,2,0,0,1,1.08.77,2.36,2.36,0,0,1,.39,1.38,2.74,2.74,0,0,1-1,2.17,3.31,3.31,0,0,1-1.13.61,4.33,4.33,0,0,1-1.43.22,4.25,4.25,0,0,1-1.88-.41A3.07,3.07,0,0,1,18.88,21a2.47,2.47,0,0,1-.3-.79,3.56,3.56,0,0,1-.08-.8h2.33a1.32,1.32,0,0,0,.37,1,1.29,1.29,0,0,0,.93.33,1.17,1.17,0,0,0,.92-.33,1.25,1.25,0,0,0,.28-.83,1.12,1.12,0,0,0-.34-.89,1.25,1.25,0,0,0-.83-.3l-.23,0-.24,0Z"/></g></g></svg>