<svg xmlns="http://www.w3.org/2000/svg" viewBox="0 0 36.59 36.59"><defs><style>.fa6c52b7-c039-4f7c-ac76-d3ade622697d{fill:#fff;}.ed175f67-465d-4e13-92b2-52cfc5054f61{fill:#f18318;}.bb52096f-0d68-4d81-b4fb-29c6cc590f8e{fill:#1d1d1b;}</style></defs><title>37</title><g id="ba15f087-0691-4e5e-a827-937b833008cc" data-name="Livello 2"><g id="f37fe2a6-3edd-4f78-90cd-3e8f1da89715" data-name="Livello 1"><circle class="fa6c52b7-c039-4f7c-ac76-d3ade622697d" cx="18.3" cy="18.3" r="16.3"/><path class="ed175f67-465d-4e13-92b2-52cfc5054f61" d="M18.3,36.59A18.3,18.3,0,1,1,36.59,18.3,18.31,18.31,0,0,1,18.3,36.59ZM18.3,4A14.3,14.3,0,1,0,32.59,18.3,14.31,14.31,0,0,0,18.3,4Z"/><path class="bb52096f-0d68-4d81-b4fb-29c6cc590f8e" d="M12.89,16.91h.28a1,1,0,0,0,.71-.27.87.87,0,0,0,.28-.68.86.86,0,0,0-.26-.66,1,1,0,0,0-1.36,0,1.08,1.08,0,0,0-.26.74H10.11a3.77,3.77,0,0,1,.35-1.26,3,3,0,0,1,.69-.93,3.1,3.1,0,0,1,1-.58,3.81,3.81,0,0,1,1.25-.19,3.86,3.86,0,0,1,1.22.18,2.87,2.87,0,0,1,.94.53,2.25,2.25,0,0,1,.59.83,2.67,2.67,0,0,1,.21,1.08,2.12,2.12,0,0,1-.24,1.07,2.36,2.36,0,0,1-.7.71,2,2,0,0,1,1.08.77,2.36,2.36,0,0,1,.39,1.38,2.74,2.74,0,0,1-1,2.17,3.41,3.41,0,0,1-1.13.61,4.64,4.64,0,0,1-3.32-.19A3.1,3.1,0,0,1,10.08,21a2.47,2.47,0,0,1-.3-.79,3.56,3.56,0,0,1-.08-.8H12a1.32,1.32,0,0,0,.37,1,1.29,1.29,0,0,0,.93.33,1.17,1.17,0,0,0,.92-.33,1.25,1.25,0,0,0,.28-.83,1.09,1.09,0,0,0-.35-.89,1.2,1.2,0,0,0-.82-.3l-.23,0-.24,0Z"/><path class="bb52096f-0d68-4d81-b4fb-29c6cc590f8e" d="M22.73,15.37H19v-2h7.43l-5.19,9H18.6Z"/></g></g></svg>