<svg xmlns="http://www.w3.org/2000/svg" viewBox="0 0 36.59 36.59"><defs><style>.bcb0a915-e5de-4c1b-b1e5-219bc3ec7280{fill:#fff;}.b60ed3ed-b9c0-4b31-a94e-3d90096fe28a{fill:#f18318;}.f41a5624-8b4b-4a82-814c-544b14ea0006{fill:#1d1d1b;}</style></defs><title>67</title><g id="b5bcc9cd-fe8c-4304-ab16-94dff295e1cb" data-name="Livello 2"><g id="a90f473c-72ce-4a5a-baf7-dfd53281581d" data-name="Livello 1"><circle class="bcb0a915-e5de-4c1b-b1e5-219bc3ec7280" cx="18.3" cy="18.3" r="16.3"/><path class="b60ed3ed-b9c0-4b31-a94e-3d90096fe28a" d="M18.3,36.59A18.3,18.3,0,1,1,36.59,18.3,18.31,18.31,0,0,1,18.3,36.59ZM18.3,4A14.3,14.3,0,1,0,32.59,18.3,14.31,14.31,0,0,0,18.3,4Z"/><path class="f41a5624-8b4b-4a82-814c-544b14ea0006" d="M16.27,14.38l-2.56,2.95h0a1.59,1.59,0,0,1,.94-.29,2.85,2.85,0,0,1,1.21.25,3,3,0,0,1,1,.69,3.2,3.2,0,0,1,.64,1,3.48,3.48,0,0,1,.23,1.26,3.34,3.34,0,0,1-.27,1.34,3.12,3.12,0,0,1-.76,1.08,3.54,3.54,0,0,1-1.21.72,4.42,4.42,0,0,1-1.59.27,4.49,4.49,0,0,1-1.61-.27,3.57,3.57,0,0,1-1.21-.72,3.18,3.18,0,0,1-.76-1.06,3.27,3.27,0,0,1-.26-1.29,4.6,4.6,0,0,1,.34-1.66,6.5,6.5,0,0,1,1-1.76l2.1-2.54Zm-3.88,5.94a1.43,1.43,0,0,0,.12.58,1.27,1.27,0,0,0,.32.47,1.54,1.54,0,0,0,.47.33,1.49,1.49,0,0,0,1.17,0,1.51,1.51,0,0,0,.92-1.38,1.48,1.48,0,0,0-.12-.59,1.54,1.54,0,0,0-.33-.47,1.4,1.4,0,0,0-.47-.32,1.49,1.49,0,0,0-1.17,0,1.51,1.51,0,0,0-.47.32,1.36,1.36,0,0,0-.32.47A1.48,1.48,0,0,0,12.39,20.32Z"/><path class="f41a5624-8b4b-4a82-814c-544b14ea0006" d="M23.14,16.37H19.36v-2h7.43l-5.19,9H19Z"/></g></g></svg>