<svg xmlns="http://www.w3.org/2000/svg" viewBox="0 0 36.59 36.59"><defs><style>.fd1e0c65-8893-4897-ba4d-fc5d80f8dfab{fill:#fff;}.a3613792-b91c-434f-82a1-f431842cdaa2{fill:#f18318;}.e21d8aef-1b89-4e39-9e63-59b3611358f1{fill:#1d1d1b;}</style></defs><title>79</title><g id="f49cbfa9-88bc-43b8-9a87-85ca7e7b6b7f" data-name="Livello 2"><g id="baa5e1e7-7512-41fc-86e8-1be0630eae99" data-name="Livello 1"><circle class="fd1e0c65-8893-4897-ba4d-fc5d80f8dfab" cx="18.3" cy="18.3" r="16.3"/><path class="a3613792-b91c-434f-82a1-f431842cdaa2" d="M18.3,36.59A18.3,18.3,0,1,1,36.59,18.3,18.31,18.31,0,0,1,18.3,36.59ZM18.3,4A14.3,14.3,0,1,0,32.59,18.3,14.31,14.31,0,0,0,18.3,4Z"/><path class="e21d8aef-1b89-4e39-9e63-59b3611358f1" d="M13.93,16.37H10.15v-2h7.43l-5.19,9H9.8Z"/><path class="e21d8aef-1b89-4e39-9e63-59b3611358f1" d="M19.79,23.43l2.57-3h-.05a1.69,1.69,0,0,1-.55.25,1.82,1.82,0,0,1-.38,0,2.9,2.9,0,0,1-1.22-.25,3,3,0,0,1-1-.69,3.07,3.07,0,0,1-.63-1,3.48,3.48,0,0,1-.23-1.26,3.26,3.26,0,0,1,.27-1.33,3,3,0,0,1,.76-1.08,3.61,3.61,0,0,1,1.2-.73,5.08,5.08,0,0,1,3.21,0,3.76,3.76,0,0,1,1.2.72,3.07,3.07,0,0,1,.77,1.06A3.34,3.34,0,0,1,26,17.46a4.6,4.6,0,0,1-.34,1.66,6.35,6.35,0,0,1-1.05,1.76l-2.1,2.55Zm3.89-5.94a1.45,1.45,0,0,0-.12-.59,1.7,1.7,0,0,0-.32-.47,1.55,1.55,0,0,0-.48-.32,1.48,1.48,0,0,0-1.63.32,1.54,1.54,0,0,0-.33.47,1.49,1.49,0,0,0,0,1.17,1.67,1.67,0,0,0,.8.8,1.46,1.46,0,0,0,1.16,0,1.58,1.58,0,0,0,.48-.33,1.56,1.56,0,0,0,.32-.47A1.43,1.43,0,0,0,23.68,17.49Z"/></g></g></svg>