<svg xmlns="http://www.w3.org/2000/svg" viewBox="0 0 36.59 36.59"><defs><style>.a700dc1f-c36f-4b10-9b4f-f16d84e20be5{fill:#fff;}.a1bb339b-85ea-42fe-9b9c-a156145846af{fill:#f18318;}.b9709ca4-b6b9-46af-b84a-e23a5c720837{fill:#1d1d1b;}</style></defs><title>89</title><g id="f0377283-3e4a-4f3d-bd91-3031e61221cf" data-name="Livello 2"><g id="a9fdb7eb-a01e-432d-80bc-367dbecd6f7b" data-name="Livello 1"><circle class="a700dc1f-c36f-4b10-9b4f-f16d84e20be5" cx="18.3" cy="18.3" r="16.3"/><path class="a1bb339b-85ea-42fe-9b9c-a156145846af" d="M18.3,36.59A18.3,18.3,0,1,1,36.59,18.3,18.31,18.31,0,0,1,18.3,36.59ZM18.3,4A14.3,14.3,0,1,0,32.59,18.3,14.31,14.31,0,0,0,18.3,4Z"/><path class="b9709ca4-b6b9-46af-b84a-e23a5c720837" d="M12.22,18.65a2,2,0,0,1-1.42-2,2.34,2.34,0,0,1,.23-1,2.43,2.43,0,0,1,.63-.8,2.89,2.89,0,0,1,1-.51,4.47,4.47,0,0,1,2.51,0,2.89,2.89,0,0,1,1,.51,2.43,2.43,0,0,1,.63.8,2.34,2.34,0,0,1,.23,1,2.51,2.51,0,0,1-.07.64,1.47,1.47,0,0,1-.25.52,2.06,2.06,0,0,1-.45.43,4.18,4.18,0,0,1-.71.4A2.45,2.45,0,0,1,17.34,21a2.32,2.32,0,0,1-.26,1.07,2.64,2.64,0,0,1-.72.85,3.3,3.3,0,0,1-1.09.56,4.34,4.34,0,0,1-1.38.21,4.63,4.63,0,0,1-1.37-.2,3.4,3.4,0,0,1-1.09-.56,2.6,2.6,0,0,1-.74-.85A2.33,2.33,0,0,1,10.43,21,2.39,2.39,0,0,1,12.22,18.65Zm.59,2a1,1,0,0,0,.08.43,1,1,0,0,0,.23.36,1,1,0,0,0,.34.24,1,1,0,0,0,.43.09,1,1,0,0,0,.41-.09,1.21,1.21,0,0,0,.35-.24,1,1,0,0,0,.23-.35A1,1,0,0,0,15,20.7a1.09,1.09,0,0,0-1.08-1.09,1,1,0,0,0-.77.32A1,1,0,0,0,12.81,20.69Zm.08-4a1,1,0,0,0,.29.72,1,1,0,0,0,.71.29.91.91,0,0,0,.7-.31,1,1,0,0,0,.21-.31,1,1,0,0,0,.08-.38,1,1,0,0,0-1-1,.92.92,0,0,0-.71.29A.94.94,0,0,0,12.89,16.68Z"/><path class="b9709ca4-b6b9-46af-b84a-e23a5c720837" d="M20.41,23.43l2.57-3h-.05a1.79,1.79,0,0,1-.55.25,1.82,1.82,0,0,1-.38,0,2.9,2.9,0,0,1-1.22-.25,3,3,0,0,1-1-.69,3.07,3.07,0,0,1-.63-1A3.48,3.48,0,0,1,19,17.53a3.43,3.43,0,0,1,.26-1.33A3,3,0,0,1,20,15.12a3.61,3.61,0,0,1,1.2-.73,4.48,4.48,0,0,1,1.6-.26,4.53,4.53,0,0,1,1.61.26,3.76,3.76,0,0,1,1.2.72,3,3,0,0,1,.76,1.06,3.17,3.17,0,0,1,.27,1.29,4.82,4.82,0,0,1-.34,1.66,6.35,6.35,0,0,1-1.05,1.76l-2.1,2.55Zm3.89-5.94a1.45,1.45,0,0,0-.12-.59,1.7,1.7,0,0,0-.32-.47,1.55,1.55,0,0,0-.48-.32,1.46,1.46,0,0,0-1.16,0,1.55,1.55,0,0,0-.48.32,1.7,1.7,0,0,0-.32.47,1.49,1.49,0,0,0,0,1.17,1.56,1.56,0,0,0,.32.47,1.58,1.58,0,0,0,.48.33,1.46,1.46,0,0,0,1.16,0,1.58,1.58,0,0,0,.48-.33,1.56,1.56,0,0,0,.32-.47A1.43,1.43,0,0,0,24.3,17.49Z"/></g></g></svg>