<svg xmlns="http://www.w3.org/2000/svg" viewBox="0 0 36.59 36.59"><defs><style>.fe05c533-5ace-4ad6-b02f-7dea13dfb90d{fill:#fff;}.e3ce7685-b228-4559-9886-79ebf3909fe9{fill:#f18318;}.b5a6fa0e-de93-4ff8-93b0-edfa0fa715cb{fill:#1d1d1b;}</style></defs><title>95</title><g id="f255710b-fe98-424c-9d93-cc4bf39c74b4" data-name="Livello 2"><g id="e3c9c21e-97a9-4c66-ae3f-c163b6d99c04" data-name="Livello 1"><circle class="fe05c533-5ace-4ad6-b02f-7dea13dfb90d" cx="18.3" cy="18.3" r="16.3"/><path class="e3ce7685-b228-4559-9886-79ebf3909fe9" d="M18.3,36.59A18.3,18.3,0,1,1,36.59,18.3,18.31,18.31,0,0,1,18.3,36.59ZM18.3,4A14.3,14.3,0,1,0,32.59,18.3,14.31,14.31,0,0,0,18.3,4Z"/><path class="b5a6fa0e-de93-4ff8-93b0-edfa0fa715cb" d="M11.5,23.42l2.56-3h0a1.9,1.9,0,0,1-.55.25,2,2,0,0,1-.39,0,2.93,2.93,0,0,1-1.22-.25,3,3,0,0,1-1-.69,3.43,3.43,0,0,1-.63-1,3.48,3.48,0,0,1-.22-1.26,3.34,3.34,0,0,1,.26-1.34,3.12,3.12,0,0,1,.76-1.08,3.64,3.64,0,0,1,1.21-.72,4.42,4.42,0,0,1,1.59-.27,4.49,4.49,0,0,1,1.61.27,3.57,3.57,0,0,1,1.21.72,3.18,3.18,0,0,1,.76,1.06,3.27,3.27,0,0,1,.26,1.29,4.6,4.6,0,0,1-.34,1.66,6.5,6.5,0,0,1-1.05,1.76l-2.1,2.54Zm3.89-5.94a1.44,1.44,0,0,0-.45-1.05,1.59,1.59,0,0,0-.47-.33,1.49,1.49,0,0,0-1.17,0,1.73,1.73,0,0,0-.47.33,1.27,1.27,0,0,0-.32.47,1.49,1.49,0,0,0,0,1.17,1.52,1.52,0,0,0,.79.79,1.49,1.49,0,0,0,1.17,0,1.27,1.27,0,0,0,.47-.32,1.54,1.54,0,0,0,.33-.47A1.45,1.45,0,0,0,15.39,17.48Z"/><path class="b5a6fa0e-de93-4ff8-93b0-edfa0fa715cb" d="M25.44,16.37H22.31l-.16,1,.4,0,.37,0a3.3,3.3,0,0,1,1.27.24,3.21,3.21,0,0,1,1,.66,3.05,3.05,0,0,1,.66,1,3.37,3.37,0,0,1,.24,1.29,3.18,3.18,0,0,1-.27,1.32,2.86,2.86,0,0,1-.76,1,3.43,3.43,0,0,1-1.2.63,5.18,5.18,0,0,1-1.57.23,6.06,6.06,0,0,1-1.56-.2,4.73,4.73,0,0,1-1.38-.61l.34-2.2a4.87,4.87,0,0,0,1.23.78,3,3,0,0,0,1.19.27,1.61,1.61,0,0,0,1.14-.39,1.32,1.32,0,0,0-.15-2,2.39,2.39,0,0,0-1.47-.42,4.79,4.79,0,0,0-.84.09,4,4,0,0,0-.86.29l.76-4.86h4.74Z"/></g></g></svg>