<svg id="facebook-logo_2_" data-name="facebook-logo (2)" xmlns="http://www.w3.org/2000/svg" viewBox="0 0 10.161 18.795">
  <defs>
    <style>
      .cls-1 {
        fill: #fff;
      }
    </style>
  </defs>
  <path id="Path_3" data-name="Path 3" class="cls-1" d="M31.856,0,29.418,0a4.28,4.28,0,0,0-4.508,4.625V6.758H22.46a.383.383,0,0,0-.383.383v3.09a.383.383,0,0,0,.383.383h2.451v7.8a.383.383,0,0,0,.383.383h3.2a.383.383,0,0,0,.383-.383v-7.8H31.74a.383.383,0,0,0,.383-.383V7.141a.384.384,0,0,0-.383-.383H28.875V4.95c0-.869.207-1.31,1.339-1.31h1.642a.383.383,0,0,0,.383-.383V.387A.383.383,0,0,0,31.856,0Z" transform="translate(-22.077)"/>
</svg>
