<svg id="instagram-logo" xmlns="http://www.w3.org/2000/svg" viewBox="0 0 19.346 19.346">
  <defs>
    <style>
      .cls-1 {
        fill: #fff;
      }
    </style>
  </defs>
  <path id="Path_5" data-name="Path 5" class="cls-1" d="M14.007,0H5.339A5.345,5.345,0,0,0,0,5.339v8.668a5.345,5.345,0,0,0,5.339,5.339h8.668a5.345,5.345,0,0,0,5.339-5.339V5.339A5.345,5.345,0,0,0,14.007,0ZM17.63,14.007a3.626,3.626,0,0,1-3.622,3.622H5.339a3.626,3.626,0,0,1-3.622-3.622V5.339A3.626,3.626,0,0,1,5.339,1.716h8.668A3.627,3.627,0,0,1,17.63,5.339v8.668Z"/>
  <path id="Path_6" data-name="Path 6" class="cls-1" d="M45.953,40.97a4.985,4.985,0,1,0,4.985,4.985A4.991,4.991,0,0,0,45.953,40.97Zm0,8.253a3.268,3.268,0,1,1,3.268-3.268A3.272,3.272,0,0,1,45.953,49.223Z" transform="translate(-36.28 -36.282)"/>
  <path id="Path_7" data-name="Path 7" class="cls-1" d="M120.18,28.251a1.258,1.258,0,1,0,.89.368A1.264,1.264,0,0,0,120.18,28.251Z" transform="translate(-105.313 -25.018)"/>
</svg>
