<?xml version="1.0" encoding="utf-8"?>
<!-- Generator: Adobe Illustrator 22.1.0, SVG Export Plug-In . SVG Version: 6.00 Build 0)  -->
<svg version="1.1" id="Livello_1" xmlns="http://www.w3.org/2000/svg" xmlns:xlink="http://www.w3.org/1999/xlink" x="0px" y="0px"
	 viewBox="0 0 557 181" style="enable-background:new 0 0 557 181;" xml:space="preserve">
<style type="text/css">
	.st0{fill:#E63329;}
	.st1{clip-path:url(#SVGID_2_);fill:#E63329;}
	.st2{clip-path:url(#SVGID_2_);fill:#575756;}
	.st3{fill:#575651;}
	.st4{fill:#FFFFFF;}
	.st5{fill:#575756;}
	.st6{clip-path:url(#SVGID_4_);fill:none;stroke:#575756;}
	.st7{fill:none;stroke:#FFFFFF;stroke-width:0.324;stroke-linecap:round;stroke-miterlimit:3.8637;}
	.st8{fill:#E40521;}
	.st9{fill:#B2B1A7;}
	.st10{fill:none;stroke:#575651;stroke-width:0.1816;}
	.st11{fill:none;stroke:#E40521;stroke-width:2.693;}
	.st12{fill-rule:evenodd;clip-rule:evenodd;fill:#575651;}
	.st13{fill-rule:evenodd;clip-rule:evenodd;fill:#E40521;}
</style>
<g>
	<g>
		<path class="st0" d="M466.8,132.7c-1.4,2.7-4.7,4.1-7.4,2.7c-2.7-1.4-3.9-4.7-2.7-7.4l27.1-57.9h-27.4c-3.1,0-5.5-2.5-5.5-5.5
			c0-3.1,2.5-5.5,5.5-5.5h36c2,0,3.8,1,4.8,2.6c1.1,1.7,1,3.8,0.2,5.4L466.8,132.7L466.8,132.7z"/>
		<g>
			<defs>
				<rect id="SVGID_1_" x="449" y="59" width="98.6" height="115"/>
			</defs>
			<clipPath id="SVGID_2_">
				<use xlink:href="#SVGID_1_"  style="overflow:visible;"/>
			</clipPath>
			<path class="st1" d="M520.2,94.5c0-8-6.4-14.4-14.4-14.4c-7.9,0-14.4,6.4-14.4,14.4c0,7.9,6.5,14.4,14.4,14.4
				C513.8,108.9,520.2,102.3,520.2,94.5L520.2,94.5z M505.8,119.9c-14,0-25.5-11.4-25.5-25.5c0-14,11.4-25.5,25.5-25.5
				c14,0,25.5,11.4,25.5,25.5C531.2,108.5,519.8,119.9,505.8,119.9L505.8,119.9z"/>
			<path class="st2" d="M528.9,156.3H457c-4.4,0-8-3.6-8-8v-0.5c0-4.4,3.6-8,8-8h71.9c4.4,0,8,3.6,8,8v0.5
				C536.9,152.7,533.3,156.3,528.9,156.3L528.9,156.3z"/>
		</g>
		<path class="st3" d="M492.8,132l-2.5-5.4l-2.4,5.4H492.8L492.8,132z M495.9,136.4c-0.5,0.2-1,0-1.3-0.5l-1-2.1h-6.6l-0.9,2.1
			c-0.1,0.4-0.5,0.6-0.9,0.6c-0.1,0-0.3,0-0.4-0.1c-0.5-0.2-0.7-0.8-0.5-1.2l5-11.2c0.1-0.3,0.5-0.6,0.9-0.6c0.4,0,0.7,0.2,0.9,0.5
			l5.2,11.2C496.6,135.7,496.4,136.2,495.9,136.4L495.9,136.4z"/>
		<path class="st3" d="M506.5,136.1l-6.4-8.9v8.3c0,0.5-0.4,0.9-0.9,0.9c-0.5,0-0.9-0.4-0.9-0.9v-11.2c0-0.4,0.3-0.8,0.7-0.9
			c0.4-0.1,0.8,0,1,0.3l6.4,8.9v-8.3c0-0.5,0.4-0.9,0.9-0.9c0.5,0,0.9,0.4,0.9,0.9v11.2c0,0.4-0.3,0.8-0.7,0.9c-0.1,0-0.2,0-0.3,0
			C507,136.5,506.7,136.4,506.5,136.1L506.5,136.1z"/>
		<path class="st3" d="M519.1,136.1l-6.4-8.9v8.3c0,0.5-0.4,0.9-0.9,0.9c-0.5,0-0.9-0.4-0.9-0.9v-11.2c0-0.4,0.3-0.8,0.7-0.9
			c0.4-0.1,0.8,0,1,0.3l6.4,8.9v-8.3c0-0.5,0.4-0.9,0.9-0.9c0.5,0,0.9,0.4,0.9,0.9v11.2c0,0.4-0.3,0.8-0.7,0.9c-0.1,0-0.2,0-0.3,0
			C519.5,136.5,519.2,136.4,519.1,136.1L519.1,136.1z"/>
		<path class="st3" d="M527.9,135.6c0,0.5-0.4,0.9-0.9,0.9h-3.2c-0.5,0-0.9-0.4-0.9-0.9c0-0.5,0.4-0.9,0.9-0.9h0.7v-9.3h-0.7
			c-0.5,0-0.9-0.4-0.9-0.9s0.4-0.9,0.9-0.9h3.2c0.5,0,0.9,0.4,0.9,0.9s-0.4,0.9-0.9,0.9h-0.7v9.3h0.7
			C527.5,134.6,527.9,135.1,527.9,135.6L527.9,135.6z"/>
		<path class="st4" d="M465.1,148.8c0-1.3-1-2.3-2.3-2.3c-1.3,0-2.3,1-2.3,2.3s1,2.3,2.3,2.3C464,151.1,465.1,150.1,465.1,148.8
			L465.1,148.8z M466.4,148.8c0,1-0.4,1.9-1.1,2.6c-0.7,0.7-1.6,1.1-2.6,1.1c-0.8,0-1.6-0.3-2.3-0.8v2.2c0,0.4-0.3,0.7-0.7,0.7
			s-0.7-0.3-0.7-0.7v-8c0-0.4,0.3-0.7,0.7-0.7s0.7,0.3,0.7,0.7v0.1c0.6-0.5,1.5-0.8,2.3-0.8c1,0,1.9,0.4,2.6,1.1
			C466,146.9,466.4,147.9,466.4,148.8L466.4,148.8z"/>
		<path class="st4" d="M472.9,148.7c0.3,0,0.3-0.2,0.3-0.4c-0.3-1-1.2-1.7-2.2-1.7c-1.2,0-2.2,0.9-2.3,2.1H472.9L472.9,148.7z
			 M468.4,151.4c-0.7-0.7-1.1-1.6-1.1-2.6c0-1,0.4-1.9,1.1-2.6c0.7-0.7,1.6-1.1,2.6-1.1c1.6,0,3.1,1.1,3.5,2.7
			c0,0.2,0.1,0.3,0.1,0.5c0,0.9-0.8,1.7-1.7,1.7H469c0.4,0.7,1.1,1.1,2,1.1c0.4,0,0.7,0.3,0.7,0.7c0,0.4-0.3,0.7-0.7,0.7
			C470,152.5,469.1,152.1,468.4,151.4L468.4,151.4z"/>
		<path class="st4" d="M480.2,145.9c0,0.4-0.3,0.7-0.7,0.7c-1.3,0-2.3,1-2.3,2.3v1.9c0,0.4-0.3,0.7-0.7,0.7c-0.4,0-0.7-0.3-0.7-0.7
			v-4.8c0-0.4,0.3-0.7,0.7-0.7c0.4,0,0.7,0.3,0.7,0.7v0.1c0.6-0.5,1.5-0.8,2.3-0.8C479.9,145.2,480.2,145.5,480.2,145.9L480.2,145.9
			z"/>
		<path class="st4" d="M485.9,149.3v-6.5c0-0.4,0.3-0.7,0.7-0.7c0.4,0,0.7,0.3,0.7,0.7v6.5c0,0.5,0.4,0.8,0.8,0.8
			c0.4,0,0.7,0.3,0.7,0.7s-0.3,0.7-0.7,0.7C486.8,151.4,485.9,150.5,485.9,149.3L485.9,149.3z"/>
		<path class="st4" d="M495.2,148.8c0-1.3-1-2.3-2.3-2.3c-1.3,0-2.3,1-2.3,2.3c0,1.3,1,2.3,2.3,2.3
			C494.2,151.1,495.2,150.1,495.2,148.8L495.2,148.8z M496.8,152.2c-0.1,0.1-0.3,0.2-0.4,0.2c-0.2,0-0.3-0.1-0.4-0.2
			c-0.2-0.2-0.4-0.5-0.5-0.8c-0.7,0.7-1.6,1.1-2.5,1.1c-1,0-1.9-0.4-2.6-1.1c-0.7-0.7-1.1-1.6-1.1-2.6c0-1,0.4-1.9,1.1-2.6
			c0.7-0.7,1.6-1.1,2.6-1.1c0.9,0,1.8,0.3,2.4,0.9v-0.3c0-0.3,0.3-0.6,0.6-0.6c0.3,0,0.6,0.3,0.6,0.6v4.9c0,0.2,0.1,0.4,0.3,0.6
			C497,151.6,497,152,496.8,152.2L496.8,152.2z"/>
		<path class="st4" d="M505.1,151.1l-2.7-4.9c-0.2-0.3-0.1-0.7,0.3-0.9c0.3-0.2,0.7-0.1,0.9,0.3l2.1,3.8l2.2-3.8
			c0.2-0.3,0.6-0.4,0.9-0.2c0.3,0.2,0.4,0.6,0.2,0.9l-2.8,4.9c-0.1,0.2-0.4,0.3-0.6,0.3C505.4,151.4,505.2,151.3,505.1,151.1
			L505.1,151.1z"/>
		<path class="st4" d="M510.4,150.7v-4.8c0-0.4,0.3-0.7,0.7-0.7s0.7,0.3,0.7,0.7v4.8c0,0.4-0.3,0.7-0.7,0.7S510.4,151.1,510.4,150.7
			L510.4,150.7z M511.1,143.7c-0.5,0-1-0.4-1-1c0-0.6,0.4-1,1-1c0.5,0,1,0.4,1,1C512.1,143.2,511.6,143.7,511.1,143.7L511.1,143.7z"
			/>
		<path class="st4" d="M518.3,150.7c0,0.4-0.3,0.7-0.7,0.7c-1.7,0-3.1-1.4-3.1-3.1v-1.7h-1c-0.4,0-0.7-0.3-0.7-0.7
			c0-0.4,0.3-0.7,0.7-0.7h1v-2.5c0-0.4,0.3-0.7,0.7-0.7s0.7,0.3,0.7,0.7v2.5h1.8c0.4,0,0.7,0.3,0.7,0.7c0,0.4-0.3,0.7-0.7,0.7h-1.8
			v1.7c0,1,0.8,1.8,1.8,1.8C518,150,518.3,150.3,518.3,150.7L518.3,150.7z"/>
		<path class="st4" d="M525,148.8c0-1.3-1-2.3-2.3-2.3c-1.3,0-2.3,1-2.3,2.3c0,1.3,1,2.3,2.3,2.3C523.9,151.1,525,150.1,525,148.8
			L525,148.8z M526.6,152.2c-0.1,0.1-0.3,0.2-0.4,0.2c-0.2,0-0.3-0.1-0.4-0.2c-0.2-0.2-0.4-0.5-0.5-0.8c-0.7,0.7-1.6,1.1-2.5,1.1
			c-1,0-1.9-0.4-2.6-1.1c-0.7-0.7-1.1-1.6-1.1-2.6c0-1,0.4-1.9,1.1-2.6c0.7-0.7,1.6-1.1,2.6-1.1c0.9,0,1.8,0.3,2.4,0.9v-0.3
			c0-0.3,0.3-0.6,0.6-0.6s0.6,0.3,0.6,0.6v4.9c0,0.2,0.1,0.4,0.3,0.6C526.8,151.6,526.8,152,526.6,152.2L526.6,152.2z"/>
		<path class="st5" d="M468.4,166.8v4.2c0,0.1-0.1,0.2-0.2,0.2c-0.1,0-0.2-0.1-0.2-0.2v-4h-0.8c-0.1,0-0.2-0.1-0.2-0.2
			c0-0.1,0.1-0.2,0.2-0.2h1C468.3,166.6,468.4,166.7,468.4,166.8L468.4,166.8z"/>
		<path class="st5" d="M475.4,169.6L475.4,169.6c0.2-0.4,0.3-0.8,0.3-1.2c0-1.3-1.1-2.3-2.3-2.3c-1.3,0-2.4,1.1-2.4,2.3
			c0,1.3,1.1,2.4,2.4,2.4C474.2,170.8,475,170.3,475.4,169.6L475.4,169.6z M475.8,169.9l-2.3,4c-0.1,0.1-0.1,0.1-0.2,0.1
			c-0.1,0-0.2-0.1-0.2-0.2c0,0,0-0.1,0-0.1l1.6-2.7c-0.4,0.2-0.8,0.3-1.2,0.3c-0.8,0-1.5-0.3-2-0.8c-0.5-0.5-0.8-1.2-0.8-2
			c0-0.8,0.3-1.5,0.8-2c0.5-0.5,1.2-0.8,2-0.8c0.8,0,1.5,0.3,2,0.8c0.5,0.5,0.8,1.2,0.8,2C476.2,169,476,169.5,475.8,169.9
			L475.8,169.9z"/>
		<path class="st5" d="M482.2,169v-4.3l-3.5,4.3H482.2L482.2,169z M483.9,169.2c0,0.1-0.1,0.2-0.2,0.2h-0.9v1.6
			c0,0.1-0.1,0.2-0.2,0.2c-0.1,0-0.2-0.1-0.2-0.2v-1.6h-4c-0.2,0-0.3-0.2-0.2-0.4l4.2-5.2c0.1-0.1,0.2-0.1,0.3-0.1
			c0.1,0,0.2,0.1,0.2,0.2v4.9h0.9C483.8,169,483.9,169.1,483.9,169.2L483.9,169.2z"/>
		<path class="st5" d="M488,166.6c0.9,0,1.6-0.7,1.6-1.6c0-0.9-0.7-1.6-1.6-1.6c-0.9,0-1.6,0.7-1.6,1.6
			C486.4,165.8,487.1,166.6,488,166.6L488,166.6z M489.9,168.9c0-1-0.8-1.9-1.9-1.9c-1,0-1.9,0.8-1.9,1.9c0,1,0.8,1.9,1.9,1.9
			C489.1,170.8,489.9,169.9,489.9,168.9L489.9,168.9z M490.4,168.9c0,1.3-1.1,2.3-2.3,2.3c-1.3,0-2.3-1-2.3-2.3
			c0-0.9,0.6-1.8,1.4-2.1c-0.6-0.4-1.1-1.1-1.1-1.8c0-1.1,0.9-2.1,2.1-2.1c1.1,0,2.1,0.9,2.1,2.1c0,0.8-0.4,1.5-1.1,1.8
			C489.8,167.2,490.4,168,490.4,168.9L490.4,168.9z"/>
		<path class="st5" d="M497.2,166.8c0,0.1-0.1,0.2-0.2,0.2h-4.2c-0.1,0-0.2-0.1-0.2-0.2c0-0.1,0.1-0.2,0.2-0.2h4.2
			C497.1,166.6,497.2,166.7,497.2,166.8L497.2,166.8z"/>
		<path class="st5" d="M498.5,173.5h3c0.1,0,0.2,0.1,0.2,0.2s-0.1,0.2-0.2,0.2H498c-0.2,0-0.3-0.3-0.2-0.4c3.6-3.9,3.6-3.9,3.6-3.9
			c0.3-0.3,0.4-0.7,0.4-1.1c0-0.9-0.7-1.6-1.6-1.6c-0.9,0-1.6,0.7-1.6,1.6c0,0.1-0.1,0.2-0.2,0.2c-0.1,0-0.2-0.1-0.2-0.2
			c0-1.1,0.9-2,2-2c1.1,0,2.1,0.9,2.1,2c0,0.5-0.2,1-0.6,1.4L498.5,173.5L498.5,173.5z"/>
		<path class="st5" d="M508.4,168.9c0-1-0.8-1.9-1.9-1.9c-1,0-1.9,0.8-1.9,1.9c0,1,0.8,1.9,1.9,1.9
			C507.6,170.8,508.4,170,508.4,168.9L508.4,168.9z M508.9,168.9c0,1.3-1.1,2.3-2.3,2.3c-1.3,0-2.3-1-2.3-2.3c0-1.3,1.1-2.3,2.3-2.3
			C507.9,166.6,508.9,167.6,508.9,168.9L508.9,168.9z"/>
		<path class="st5" d="M512.1,166.8v4.2c0,0.1-0.1,0.2-0.2,0.2s-0.2-0.1-0.2-0.2v-4h-0.8c-0.1,0-0.2-0.1-0.2-0.2
			c0-0.1,0.1-0.2,0.2-0.2h1C512,166.6,512.1,166.7,512.1,166.8L512.1,166.8z"/>
		<path class="st5" d="M516.6,166.6c0.9,0,1.6-0.7,1.6-1.6c0-0.9-0.7-1.6-1.6-1.6c-0.9,0-1.6,0.7-1.6,1.6
			C515,165.8,515.7,166.6,516.6,166.6L516.6,166.6z M518.5,168.9c0-1-0.8-1.9-1.9-1.9c-1,0-1.9,0.8-1.9,1.9c0,1,0.8,1.9,1.9,1.9
			C517.6,170.8,518.5,169.9,518.5,168.9L518.5,168.9z M519,168.9c0,1.3-1.1,2.3-2.3,2.3s-2.3-1-2.3-2.3c0-0.9,0.6-1.8,1.4-2.1
			c-0.7-0.4-1.1-1.1-1.1-1.8c0-1.1,0.9-2.1,2.1-2.1c1.1,0,2.1,0.9,2.1,2.1c0,0.8-0.4,1.5-1.1,1.8C518.4,167.2,519,168,519,168.9
			L519,168.9z"/>
		<g>
			<defs>
				<rect id="SVGID_3_" x="449" y="59" width="98.6" height="115"/>
			</defs>
			<clipPath id="SVGID_4_">
				<use xlink:href="#SVGID_3_"  style="overflow:visible;"/>
			</clipPath>
			<path class="st6" d="M450.3,169.1H465 M520.8,169.1h14.8"/>
		</g>
	</g>
	<g>
		<path class="st4" d="M354.9,86.5c0-14.6,4.2-26.5,9.3-26.5c5.1,0,9.3,11.8,9.3,26.5c0,14.6-4.1,26.5-9.3,26.5
			C359.1,112.9,354.9,101.1,354.9,86.5L354.9,86.5L354.9,86.5z"/>
		<path class="st7" d="M354.9,86.5c0-14.6,4.2-26.5,9.3-26.5c5.1,0,9.3,11.8,9.3,26.5c0,14.6-4.1,26.5-9.3,26.5
			C359.1,112.9,354.9,101.1,354.9,86.5L354.9,86.5L354.9,86.5z"/>
		<path class="st8" d="M363.2,59.2c0.4,0,0.4,0,0.8,0c14.8,0,26.9,12,26.9,26.9c0,14.1-10.8,25.7-24.6,26.8l-0.1-0.5L366,112
			l-0.3-0.2l-0.1-0.4l-0.3-0.3l-0.1-0.5l-0.2-0.3l-0.2-0.8l-0.2-0.4l0.2-0.8l0-0.8l0.1-0.8l-0.4-1.4l0.3-0.7l0.2-0.5l0.5-0.6
			l0.4-0.9l-0.3-0.6l0.4-1.3l0.1-0.9l0.5-0.6l0.3-0.1l0.7-0.9l0.4-0.6l0.4-0.6l0.1-0.8l-0.3-0.5l0-0.4l-0.2-0.4l-0.1-1l0.1-0.6
			l-0.7-0.7l-0.3-0.6l-0.1-0.4l-0.1-0.4l-0.4-0.5l-0.1-0.5l-0.4-0.3l0.1-0.9l0-1l-0.5-0.6l-0.6-0.8l-0.2-0.9l0.1-0.5l0.1-0.7
			l0.2-0.7l-0.1-0.4v-0.5l-0.1-0.5l-0.1-0.6l0.3-0.8l0.9-0.8l0.4-0.7l0.6-0.6l0.2-1.1l0.3-0.3l0-0.4l0.3-0.6l-0.1-0.7l-0.5-0.5
			l0.1-1.3l-0.3-0.5l-0.3-0.3l0.1-0.6l-0.3-0.8l-0.4-0.5l0-0.5l-0.9-0.9l-0.1-0.5l-0.6-0.4l-0.3-1l-0.1-0.6l-0.5-0.3l-0.6-0.7v-0.8
			L363,66l0.2-0.7l0.1-0.7l-0.1-0.5l0.3-0.5l0.1-1l-0.1-0.5l0-0.8l-0.2-0.7l0-0.9L363.2,59.2L363.2,59.2L363.2,59.2z"/>
		<path class="st9" d="M361,113.8c0,0-27.2,0.9-28.1-26.5c0-14.5,10.3-27.1,26.2-26.9c0,0-0.5,2-0.4,2.1c0,0.1-0.3,1.9-0.3,1.9
			l-0.3,1.3v1.5c0,0,0.7,1,0.8,1c0.2,0,0.8,2.2,0.8,2.2s0.4,0.6,0.6,0.7c0.2,0.1,1.3,2,1.3,2l0.3,1.7L362,76l0.6,0.8l-0.7,2.5
			l-1.4,2.5l-1,2.4l0.3,3.2c0,0,0.9,3.7,1,3.5c0.1-0.2,1.7,3.5,1.7,3.5l-0.3,3.5l-1.7,2.4l-1.8,8.5l0.8,3.2l-1.1,0.3L361,113.8
			L361,113.8L361,113.8z"/>
		<path class="st8" d="M362.3,113.8c0,0-23.9,0-25.5-26.7c0-14.5,11.3-26.8,25.8-27c0,0-0.1,2-0.1,2.1c0.1,0.1-0.3,2-0.3,2l-0.3,1.3
			V67c0,0,0.6,1,0.8,1c0.2,0,0.8,2.2,0.8,2.2s0.4,0.6,0.6,0.7c0.2,0.1,1.3,1.9,1.3,1.9l0.3,1.7l0.1,1.2l0.5,0.8l-0.7,2.5l-1.4,2.5
			l-1,2.4l0.3,3.2c0,0,0.9,3.7,1,3.5c0.1-0.2,1.7,3.5,1.7,3.5l-0.3,3.5l-1.7,2.4l-1.8,8.5l0.8,3.2l-1.1,0.3L362.3,113.8L362.3,113.8
			L362.3,113.8z"/>
		<path class="st3" d="M362.1,60.5l-0.2,1.2l0.1,0.8l0,0.8l-0.3,0.6c0,0,0.2,0.7,0.1,0.7c-0.1,0-0.4,0.2-0.4,0.2v0.8l0.2,0.3
			c0,0-0.4,0.5-0.4,0.5c0-0.1,0,1.4,0,1.4l0.9,1l0.3,0.1c0,0,0.3,0.3,0.2,0.4c0,0.1,0,1.1,0,1.1c0,0,0.5,0.9,0.5,0.9l0.9,0.9
			l0.4,0.8l0.3,1.1l-0.1,0.8l0.5,0.9l0,1.2l0.3,0.2c0,0,0.5,0.1,0.4,0.2c-0.1,0.1-0.2,0.5-0.2,0.5l-0.4,0.5l0,0.7l-0.4,0.3l0,0.8
			l-0.9,0.9l-0.2,0.4c0,0-1,0.8-1,0.8c0,0-0.6,0.9-0.6,0.9v2.7l-0.5,0.5l0,0.7l0.3,0.3c0,0-0.3,0.7,0,0.9c0.2,0.2,0.5,0.6,0.5,0.6
			l0.3,0.9l-0.2,1.6l0.8,1.2l0.1,1l0.8,0.8v0.4l0.4,0.4l0,0.5l-0.3,0.5l0.2,0.6l0.3,0.5c0,0,0.2,0.8,0.1,0.9
			c-0.2,0.1-0.9,1.5-0.9,1.5s-0.5,0.4-0.6,0.4c-0.1,0-1.1,1-1.1,1s-0.1,1.5-0.1,1.5c0,0-0.4,0.5-0.4,0.5s0,0.5,0,0.6
			c0,0,0.4,0.5,0.3,0.6c-0.1,0.1-0.5,0.4-0.5,0.4c0,0-0.1,0.7-0.1,0.7s-0.6,0.1-0.7,0c0-0.1-0.3,1.6-0.3,1.6s0.3,0.7,0.2,0.8
			c0,0.1,0.2,0.9,0.2,1c0,0-0.2,0.6-0.2,0.6s-0.1,0.7-0.1,0.7c-0.1,0-0.2,0.5-0.2,0.5l0.1,0.7l0.4,0.2l0.1,0.6l0.1,0.3
			c0,0,0.1,0.6,0.1,0.6c0,0,0.3,0.4,0.3,0.4l0.3,0.7c0,0,1,0.1,1.1,0c0,0,1.7,0.1,1.7,0.1l0.7-0.1c0,0,0.9,0.6,0-0.6
			c-0.9-1.1-1.6-2.1-1.6-2.2c0-0.1,0.1-0.8,0.1-0.9c0-0.1,0.1-0.4,0.1-0.5c0-0.1-0.2-0.1-0.3-0.8c-0.1-0.7-0.1-0.4,0-0.5
			c0,0,0.7-0.6,0.7-0.6l-0.4-1.2c0,0-0.2-0.7-0.2-0.8c0-0.1,0.2-0.6,0.2-0.7c0-0.1,0.4-0.6,0.4-0.6l0.6-0.9c0,0-0.2-0.3-0.1-0.4
			c0.1-0.1,0.3-0.4,0.2-0.5c-0.1-0.1-0.2-0.6-0.1-0.7c0-0.1,0.6-0.9,0.5-1c-0.1-0.1-0.5-0.4-0.5-0.4l1.1-1.1v-0.3c0,0,0.5,0,0.5-0.1
			c0-0.1,0.2-0.4,0.2-0.4l0.1-0.4l0.3-0.3l0.6-1.3c0,0-0.4-0.6-0.5-1c0-0.3,0.1-1.6,0.1-1.6s-0.9-0.7-1-1.2
			c-0.1-0.5-0.2-0.6-0.2-0.6l-0.7-1.2v-0.3l-0.2-0.3l0.1-1.2c0,0-0.1-0.6-0.1-0.7c0-0.1-1-1.5-1-1.7c-0.1-0.2-0.1-1.4-0.1-1.4
			l0.2-0.6c0,0,0-0.8,0.1-1.2c0.1-0.4,0.2-0.6,0.2-0.6l-0.2-0.7l0.3-0.3l0.6-0.6v-0.4l0.3-0.3l0.1-0.6l0.7-0.7l0-0.8l0.5-0.6
			c0,0,0.1-1.1,0-1.3c-0.1-0.2-0.7-0.8-0.7-0.8l-0.2-3.4c0,0-0.4-0.2-0.7-0.8c-0.3-0.6-0.3-0.8-0.3-0.8h-0.3l-0.9-0.8l-0.1-1.5
			l-0.7-1h-0.3l-0.2-0.5c0,0,0-1.9,0-1.9c0,0-0.1-0.4,0-0.5c0.1-0.1,0-0.7,0.2-1.1c0.2-0.4,0.5-0.2,0.4-0.4c-0.1-0.2-0.2-1-0.2-1.1
			c0-0.1-0.3-0.3-0.3-0.3s-0.1-0.7,0-1c0.1-0.3,0.1-0.4,0-0.5C362.4,60.4,362.1,60.5,362.1,60.5L362.1,60.5L362.1,60.5z"/>
		<path class="st3" d="M304.5,122.7c-0.1-0.5-0.3-1-0.6-1.3c-0.4-0.3-0.9-0.4-1.5-0.4c-0.7,0-1.2,0.1-1.5,0.4
			c-0.3,0.3-0.5,0.6-0.5,1.1c0,0.3,0.1,0.6,0.3,0.7c0.2,0.2,0.7,0.3,1.4,0.5l1.5,0.4c0.8,0.2,1.4,0.5,1.7,0.8
			c0.3,0.4,0.5,0.9,0.5,1.6c0,0.8-0.3,1.4-0.9,1.9c-0.6,0.5-1.4,0.7-2.4,0.7c-1.1,0-2-0.3-2.6-0.8c-0.6-0.5-0.9-1.2-0.9-2.1V126h1.1
			c0,0.6,0.2,1.1,0.7,1.4c0.4,0.3,1,0.5,1.8,0.5c0.7,0,1.3-0.1,1.6-0.4c0.4-0.2,0.6-0.6,0.6-1.1c0-0.4-0.1-0.7-0.4-0.9
			c-0.2-0.2-0.7-0.4-1.5-0.6l-1.5-0.4c-0.8-0.2-1.3-0.4-1.6-0.7c-0.3-0.3-0.5-0.8-0.5-1.3c0-0.8,0.3-1.5,0.8-2
			c0.6-0.5,1.3-0.7,2.3-0.7c1,0,1.7,0.2,2.3,0.7c0.6,0.5,0.9,1.1,0.9,2H304.5L304.5,122.7z"/>
		<path class="st10" d="M304.5,122.7c-0.1-0.5-0.3-1-0.6-1.3c-0.4-0.3-0.9-0.4-1.5-0.4c-0.7,0-1.2,0.1-1.5,0.4
			c-0.3,0.3-0.5,0.6-0.5,1.1c0,0.3,0.1,0.6,0.3,0.7c0.2,0.2,0.7,0.3,1.4,0.5l1.5,0.4c0.8,0.2,1.4,0.5,1.7,0.8
			c0.3,0.4,0.5,0.9,0.5,1.6c0,0.8-0.3,1.4-0.9,1.9c-0.6,0.5-1.4,0.7-2.4,0.7c-1.1,0-2-0.3-2.6-0.8c-0.6-0.5-0.9-1.2-0.9-2.1V126h1.1
			c0,0.6,0.2,1.1,0.7,1.4c0.4,0.3,1,0.5,1.8,0.5c0.7,0,1.3-0.1,1.6-0.4c0.4-0.2,0.6-0.6,0.6-1.1c0-0.4-0.1-0.7-0.4-0.9
			c-0.2-0.2-0.7-0.4-1.5-0.6l-1.5-0.4c-0.8-0.2-1.3-0.4-1.6-0.7c-0.3-0.3-0.5-0.8-0.5-1.3c0-0.8,0.3-1.5,0.8-2
			c0.6-0.5,1.3-0.7,2.3-0.7c1,0,1.7,0.2,2.3,0.7c0.6,0.5,0.9,1.1,0.9,2H304.5L304.5,122.7z"/>
		<polygon class="st3" points="307,128.8 307,120.2 313.3,120.2 313.3,120.7 313.3,121.2 308.2,121.2 308.2,123.8 312.9,123.8 
			312.9,124.4 312.9,124.9 308.2,124.9 308.2,127.8 313.4,127.8 313.4,128.3 313.4,128.8 307,128.8 		"/>
		<polygon class="st10" points="307,128.8 307,120.2 313.3,120.2 313.3,120.7 313.3,121.2 308.2,121.2 308.2,123.8 312.9,123.8 
			312.9,124.4 312.9,124.9 308.2,124.9 308.2,127.8 313.4,127.8 313.4,128.3 313.4,128.8 307,128.8 		"/>
		<polygon class="st3" points="313.9,127.8 319.2,121.2 314.3,121.2 314.3,120.7 314.3,120.2 320.7,120.2 320.7,120.7 320.7,121.2 
			315.3,127.8 320.7,127.8 320.7,128.3 320.7,128.8 313.9,128.8 313.9,128.3 313.9,127.8 		"/>
		<polygon class="st10" points="313.9,127.8 319.2,121.2 314.3,121.2 314.3,120.7 314.3,120.2 320.7,120.2 320.7,120.7 320.7,121.2 
			315.3,127.8 320.7,127.8 320.7,128.3 320.7,128.8 313.9,128.8 313.9,128.3 313.9,127.8 		"/>
		<polygon class="st3" points="321.7,120.2 322.3,120.2 322.8,120.2 322.8,128.8 322.3,128.8 321.7,128.8 321.7,120.2 		"/>
		<polygon class="st10" points="321.7,120.2 322.3,120.2 322.8,120.2 322.8,128.8 322.3,128.8 321.7,128.8 321.7,120.2 		"/>
		<path class="st3" d="M330.4,127c0.6-0.6,0.8-1.5,0.8-2.5c0-1-0.3-1.9-0.8-2.5c-0.5-0.6-1.3-1-2.2-1c-0.9,0-1.6,0.3-2.2,1
			c-0.6,0.6-0.8,1.5-0.8,2.5c0,1,0.3,1.9,0.8,2.5c0.5,0.6,1.3,1,2.2,1C329.1,128,329.8,127.7,330.4,127L330.4,127z M325.2,127.8
			c-0.8-0.8-1.2-1.9-1.2-3.3c0-1.4,0.4-2.5,1.2-3.3c0.8-0.8,1.8-1.3,3-1.3c1.3,0,2.3,0.4,3,1.3c0.8,0.8,1.2,1.9,1.2,3.3
			c0,1.4-0.4,2.4-1.2,3.3c-0.8,0.8-1.8,1.3-3,1.3C327,129,326,128.6,325.2,127.8L325.2,127.8z"/>
		<path class="st10" d="M330.4,127c0.6-0.6,0.8-1.5,0.8-2.5c0-1-0.3-1.9-0.8-2.5c-0.5-0.6-1.3-1-2.2-1c-0.9,0-1.6,0.3-2.2,1
			c-0.6,0.6-0.8,1.5-0.8,2.5c0,1,0.3,1.9,0.8,2.5c0.5,0.6,1.3,1,2.2,1C329.1,128,329.8,127.7,330.4,127L330.4,127z M325.2,127.8
			c-0.8-0.8-1.2-1.9-1.2-3.3c0-1.4,0.4-2.5,1.2-3.3c0.8-0.8,1.8-1.3,3-1.3c1.3,0,2.3,0.4,3,1.3c0.8,0.8,1.2,1.9,1.2,3.3
			c0,1.4-0.4,2.4-1.2,3.3c-0.8,0.8-1.8,1.3-3,1.3C327,129,326,128.6,325.2,127.8L325.2,127.8z"/>
		<polygon class="st3" points="334.6,128.8 334,128.8 333.5,128.8 333.5,120.2 334.1,120.2 334.9,120.2 339.2,127.2 339.2,120.2 
			339.7,120.2 340.3,120.2 340.3,128.8 339.6,128.8 339,128.8 334.6,121.8 334.6,128.8 		"/>
		<polygon class="st10" points="334.6,128.8 334,128.8 333.5,128.8 333.5,120.2 334.1,120.2 334.9,120.2 339.2,127.2 339.2,120.2 
			339.7,120.2 340.3,120.2 340.3,128.8 339.6,128.8 339,128.8 334.6,121.8 334.6,128.8 		"/>
		<polygon class="st3" points="341.9,128.8 341.9,120.2 348.2,120.2 348.2,120.7 348.2,121.2 343,121.2 343,123.8 347.7,123.8 
			347.7,124.4 347.7,124.9 343,124.9 343,127.8 348.2,127.8 348.2,128.3 348.2,128.8 341.9,128.8 		"/>
		<polygon class="st10" points="341.9,128.8 341.9,120.2 348.2,120.2 348.2,120.7 348.2,121.2 343,121.2 343,123.8 347.7,123.8 
			347.7,124.4 347.7,124.9 343,124.9 343,127.8 348.2,127.8 348.2,128.3 348.2,128.8 341.9,128.8 		"/>
		<path class="st3" d="M353.7,124.2h2.3c0.6,0,1-0.1,1.3-0.4c0.3-0.3,0.4-0.7,0.4-1.2c0-0.5-0.1-0.8-0.4-1.1
			c-0.3-0.2-0.7-0.3-1.3-0.3h-2.3V124.2L353.7,124.2z M352.5,120.2h0.6h3.2c0.8,0,1.5,0.2,2,0.6c0.5,0.4,0.7,1,0.7,1.7
			c0,0.8-0.2,1.5-0.7,1.9c-0.5,0.5-1.1,0.7-2,0.7c-1.1,0-2,0-2.6,0v3.6h-0.6h-0.6V120.2L352.5,120.2z"/>
		<path class="st10" d="M353.7,124.2h2.3c0.6,0,1-0.1,1.3-0.4c0.3-0.3,0.4-0.7,0.4-1.2c0-0.5-0.1-0.8-0.4-1.1
			c-0.3-0.2-0.7-0.3-1.3-0.3h-2.3V124.2L353.7,124.2z M352.5,120.2h0.6h3.2c0.8,0,1.5,0.2,2,0.6c0.5,0.4,0.7,1,0.7,1.7
			c0,0.8-0.2,1.5-0.7,1.9c-0.5,0.5-1.1,0.7-2,0.7c-1.1,0-2,0-2.6,0v3.6h-0.6h-0.6V120.2L352.5,120.2z"/>
		<path class="st3" d="M361.3,124.1h2.9c0.5,0,0.9-0.1,1.2-0.4c0.3-0.2,0.4-0.6,0.4-1.1c0-0.5-0.1-0.9-0.4-1.1
			c-0.3-0.2-0.7-0.3-1.3-0.3h-2.8V124.1L361.3,124.1z M360.2,120.2h0.6h3.4c0.9,0,1.6,0.2,2.1,0.6c0.5,0.4,0.7,1,0.7,1.7
			c0,0.8-0.2,1.3-0.7,1.8c-0.1,0.1-0.3,0.2-0.4,0.3l0.2,0.1c0.5,0.3,0.8,0.8,0.8,1.5l0,1.6c0,0.3,0,0.4,0.1,0.6
			c0.1,0.1,0.2,0.2,0.3,0.3v0.2h-1.4c0-0.1-0.1-0.3-0.1-0.5c0-0.3-0.1-0.6-0.1-1l0-0.7c0-0.5-0.1-0.9-0.4-1.1
			c-0.2-0.2-0.6-0.3-1.2-0.3h-2.8v3.7h-0.6h-0.6V120.2L360.2,120.2z"/>
		<path class="st10" d="M361.3,124.1h2.9c0.5,0,0.9-0.1,1.2-0.4c0.3-0.2,0.4-0.6,0.4-1.1c0-0.5-0.1-0.9-0.4-1.1
			c-0.3-0.2-0.7-0.3-1.3-0.3h-2.8V124.1L361.3,124.1z M360.2,120.2h0.6h3.4c0.9,0,1.6,0.2,2.1,0.6c0.5,0.4,0.7,1,0.7,1.7
			c0,0.8-0.2,1.3-0.7,1.8c-0.1,0.1-0.3,0.2-0.4,0.3l0.2,0.1c0.5,0.3,0.8,0.8,0.8,1.5l0,1.6c0,0.3,0,0.4,0.1,0.6
			c0.1,0.1,0.2,0.2,0.3,0.3v0.2h-1.4c0-0.1-0.1-0.3-0.1-0.5c0-0.3-0.1-0.6-0.1-1l0-0.7c0-0.5-0.1-0.9-0.4-1.1
			c-0.2-0.2-0.6-0.3-1.2-0.3h-2.8v3.7h-0.6h-0.6V120.2L360.2,120.2z"/>
		<path class="st3" d="M374.2,127c0.6-0.6,0.8-1.5,0.8-2.5c0-1-0.3-1.9-0.8-2.5c-0.5-0.6-1.3-1-2.2-1c-0.9,0-1.6,0.3-2.2,1
			c-0.5,0.6-0.8,1.5-0.8,2.5c0,1,0.3,1.9,0.8,2.5c0.6,0.6,1.3,1,2.2,1C373,128,373.7,127.7,374.2,127L374.2,127z M369,127.8
			c-0.8-0.8-1.2-1.9-1.2-3.3c0-1.4,0.4-2.5,1.2-3.3c0.8-0.8,1.8-1.3,3-1.3c1.3,0,2.3,0.4,3,1.3c0.8,0.8,1.2,1.9,1.2,3.3
			c0,1.4-0.4,2.4-1.2,3.3c-0.8,0.8-1.8,1.3-3,1.3C370.8,129,369.8,128.6,369,127.8L369,127.8z"/>
		<path class="st10" d="M374.2,127c0.6-0.6,0.8-1.5,0.8-2.5c0-1-0.3-1.9-0.8-2.5c-0.5-0.6-1.3-1-2.2-1c-0.9,0-1.6,0.3-2.2,1
			c-0.5,0.6-0.8,1.5-0.8,2.5c0,1,0.3,1.9,0.8,2.5c0.6,0.6,1.3,1,2.2,1C373,128,373.7,127.7,374.2,127L374.2,127z M369,127.8
			c-0.8-0.8-1.2-1.9-1.2-3.3c0-1.4,0.4-2.5,1.2-3.3c0.8-0.8,1.8-1.3,3-1.3c1.3,0,2.3,0.4,3,1.3c0.8,0.8,1.2,1.9,1.2,3.3
			c0,1.4-0.4,2.4-1.2,3.3c-0.8,0.8-1.8,1.3-3,1.3C370.8,129,369.8,128.6,369,127.8L369,127.8z"/>
		<polygon class="st3" points="376.6,120.2 377.3,120.2 377.9,120.2 380.4,127.6 380.4,127.6 382.9,120.2 383.5,120.2 384.1,120.2 
			381,128.8 380.4,128.8 379.8,128.8 376.6,120.2 		"/>
		<polygon class="st10" points="376.6,120.2 377.3,120.2 377.9,120.2 380.4,127.6 380.4,127.6 382.9,120.2 383.5,120.2 384.1,120.2 
			381,128.8 380.4,128.8 379.8,128.8 376.6,120.2 		"/>
		<polygon class="st3" points="385.1,120.2 385.7,120.2 386.3,120.2 386.3,128.8 385.7,128.8 385.1,128.8 385.1,120.2 		"/>
		<polygon class="st10" points="385.1,120.2 385.7,120.2 386.3,120.2 386.3,128.8 385.7,128.8 385.1,128.8 385.1,120.2 		"/>
		<polygon class="st3" points="389,128.8 388.5,128.8 387.9,128.8 387.9,120.2 388.6,120.2 389.3,120.2 393.6,127.2 393.6,120.2 
			394.2,120.2 394.8,120.2 394.8,128.8 394.1,128.8 393.5,128.8 389,121.8 389,128.8 		"/>
		<polygon class="st10" points="389,128.8 388.5,128.8 387.9,128.8 387.9,120.2 388.6,120.2 389.3,120.2 393.6,127.2 393.6,120.2 
			394.2,120.2 394.8,120.2 394.8,128.8 394.1,128.8 393.5,128.8 389,121.8 389,128.8 		"/>
		<path class="st3" d="M403.5,125.6c-0.1,1.1-0.6,1.9-1.2,2.5c-0.7,0.6-1.5,0.9-2.5,0.9c-1.2,0-2.1-0.4-2.8-1.2
			c-0.7-0.8-1.1-1.9-1.1-3.3c0-1.4,0.4-2.5,1.1-3.3c0.7-0.8,1.7-1.2,2.9-1.2c1,0,1.8,0.2,2.4,0.7c0.6,0.5,1,1.2,1.1,2.1h-1.1
			c-0.1-0.6-0.4-1-0.8-1.3c-0.4-0.3-1-0.5-1.6-0.5c-0.9,0-1.5,0.3-2.1,1c-0.5,0.6-0.8,1.5-0.8,2.6c0,1.1,0.2,2,0.7,2.6
			c0.5,0.6,1.2,0.9,2.1,0.9c0.7,0,1.2-0.2,1.7-0.6c0.4-0.4,0.7-1,0.9-1.8H403.5L403.5,125.6z"/>
		<path class="st10" d="M403.5,125.6c-0.1,1.1-0.6,1.9-1.2,2.5c-0.7,0.6-1.5,0.9-2.5,0.9c-1.2,0-2.1-0.4-2.8-1.2
			c-0.7-0.8-1.1-1.9-1.1-3.3c0-1.4,0.4-2.5,1.1-3.3c0.7-0.8,1.7-1.2,2.9-1.2c1,0,1.8,0.2,2.4,0.7c0.6,0.5,1,1.2,1.1,2.1h-1.1
			c-0.1-0.6-0.4-1-0.8-1.3c-0.4-0.3-1-0.5-1.6-0.5c-0.9,0-1.5,0.3-2.1,1c-0.5,0.6-0.8,1.5-0.8,2.6c0,1.1,0.2,2,0.7,2.6
			c0.5,0.6,1.2,0.9,2.1,0.9c0.7,0,1.2-0.2,1.7-0.6c0.4-0.4,0.7-1,0.9-1.8H403.5L403.5,125.6z"/>
		<polygon class="st3" points="404.7,120.2 405.3,120.2 405.9,120.2 405.9,128.8 405.3,128.8 404.7,128.8 404.7,120.2 		"/>
		<polygon class="st10" points="404.7,120.2 405.3,120.2 405.9,120.2 405.9,128.8 405.3,128.8 404.7,128.8 404.7,120.2 		"/>
		<path class="st3" d="M409.2,125.3h2.7l-1.3-3.8L409.2,125.3L409.2,125.3z M410,120.2h0.7h0.7l3.1,8.6h-0.6h-0.6l-0.9-2.5h-3.4
			l-0.9,2.5h-0.6h-0.6L410,120.2L410,120.2z"/>
		<path class="st10" d="M409.2,125.3h2.7l-1.3-3.8L409.2,125.3L409.2,125.3z M410,120.2h0.7h0.7l3.1,8.6h-0.6h-0.6l-0.9-2.5h-3.4
			l-0.9,2.5h-0.6h-0.6L410,120.2L410,120.2z"/>
		<polygon class="st3" points="415.1,128.8 415.1,120.2 415.7,120.2 416.3,120.2 416.3,127.8 420.7,127.8 420.7,128.3 420.7,128.8 
			415.1,128.8 		"/>
		<polygon class="st10" points="415.1,128.8 415.1,120.2 415.7,120.2 416.3,120.2 416.3,127.8 420.7,127.8 420.7,128.3 420.7,128.8 
			415.1,128.8 		"/>
		<polygon class="st3" points="421.6,128.8 421.6,120.2 427.9,120.2 427.9,120.7 427.9,121.2 422.8,121.2 422.8,123.8 427.4,123.8 
			427.4,124.4 427.4,124.9 422.8,124.9 422.8,127.8 427.9,127.8 427.9,128.3 427.9,128.8 421.6,128.8 		"/>
		<polygon class="st10" points="421.6,128.8 421.6,120.2 427.9,120.2 427.9,120.7 427.9,121.2 422.8,121.2 422.8,123.8 427.4,123.8 
			427.4,124.4 427.4,124.9 422.8,124.9 422.8,127.8 427.9,127.8 427.9,128.3 427.9,128.8 421.6,128.8 		"/>
		<path class="st3" d="M336.1,144.7h2.1c0.8,0,1.5-0.3,1.9-0.9s0.7-1.4,0.7-2.4c0-1.1-0.2-1.9-0.7-2.5c-0.4-0.6-1.1-0.9-1.9-0.9
			h-2.2V144.7L336.1,144.7z M334.9,137h0.6h3c1.1,0,2,0.4,2.6,1.2c0.7,0.8,1,1.8,1,3.1c0,1.3-0.3,2.4-1,3.1
			c-0.7,0.8-1.6,1.2-2.7,1.2h-2.9h-0.6V137L334.9,137z"/>
		<path class="st10" d="M336.1,144.7h2.1c0.8,0,1.5-0.3,1.9-0.9s0.7-1.4,0.7-2.4c0-1.1-0.2-1.9-0.7-2.5c-0.4-0.6-1.1-0.9-1.9-0.9
			h-2.2V144.7L336.1,144.7z M334.9,137h0.6h3c1.1,0,2,0.4,2.6,1.2c0.7,0.8,1,1.8,1,3.1c0,1.3-0.3,2.4-1,3.1
			c-0.7,0.8-1.6,1.2-2.7,1.2h-2.9h-0.6V137L334.9,137z"/>
		<polygon class="st3" points="343.3,137 343.9,137 344.5,137 344.5,145.7 343.9,145.7 343.3,145.7 343.3,137 		"/>
		<polygon class="st10" points="343.3,137 343.9,137 344.5,137 344.5,145.7 343.9,145.7 343.3,145.7 343.3,137 		"/>
		<polygon class="st3" points="350.2,145.7 349.6,145.7 349.1,145.7 349.1,137 349.9,137 350.7,137 353.2,144.4 353.2,144.4 
			355.7,137 356.5,137 357.3,137 357.3,145.7 356.8,145.7 356.2,145.7 356.2,138.4 356.2,138.4 353.8,145.7 353.2,145.7 
			352.6,145.7 350.2,138.4 350.2,138.4 350.2,145.7 		"/>
		<polygon class="st10" points="350.2,145.7 349.6,145.7 349.1,145.7 349.1,137 349.9,137 350.7,137 353.2,144.4 353.2,144.4 
			355.7,137 356.5,137 357.3,137 357.3,145.7 356.8,145.7 356.2,145.7 356.2,138.4 356.2,138.4 353.8,145.7 353.2,145.7 
			352.6,145.7 350.2,138.4 350.2,138.4 350.2,145.7 		"/>
		<polygon class="st3" points="358.9,137 359.5,137 360.1,137 360.1,145.7 359.5,145.7 358.9,145.7 358.9,137 		"/>
		<polygon class="st10" points="358.9,137 359.5,137 360.1,137 360.1,145.7 359.5,145.7 358.9,145.7 358.9,137 		"/>
		<polygon class="st3" points="361.7,145.7 361.7,137 362.3,137 362.9,137 362.9,144.6 367.3,144.6 367.3,145.1 367.3,145.7 
			361.7,145.7 		"/>
		<polygon class="st10" points="361.7,145.7 361.7,137 362.3,137 362.9,137 362.9,144.6 367.3,144.6 367.3,145.1 367.3,145.7 
			361.7,145.7 		"/>
		<path class="st3" d="M369.8,142.1h2.7l-1.3-3.8L369.8,142.1L369.8,142.1z M370.5,137h0.7h0.7l3.1,8.6h-0.6h-0.6l-0.9-2.5h-3.4
			l-0.9,2.5h-0.6h-0.6L370.5,137L370.5,137z"/>
		<path class="st10" d="M369.8,142.1h2.7l-1.3-3.8L369.8,142.1L369.8,142.1z M370.5,137h0.7h0.7l3.1,8.6h-0.6h-0.6l-0.9-2.5h-3.4
			l-0.9,2.5h-0.6h-0.6L370.5,137L370.5,137z"/>
		<polygon class="st3" points="376.8,145.7 376.2,145.7 375.7,145.7 375.7,137 376.4,137 377.1,137 381.4,144 381.4,137 382,137 
			382.5,137 382.5,145.7 381.9,145.7 381.2,145.7 376.8,138.6 376.8,145.7 		"/>
		<polygon class="st10" points="376.8,145.7 376.2,145.7 375.7,145.7 375.7,137 376.4,137 377.1,137 381.4,144 381.4,137 382,137 
			382.5,137 382.5,145.7 381.9,145.7 381.2,145.7 376.8,138.6 376.8,145.7 		"/>
		<path class="st3" d="M389.9,143.9c0.5-0.6,0.8-1.5,0.8-2.5c0-1-0.3-1.9-0.8-2.5c-0.5-0.6-1.3-1-2.2-1c-0.9,0-1.6,0.3-2.2,1
			c-0.5,0.6-0.8,1.5-0.8,2.5c0,1,0.3,1.9,0.8,2.5c0.5,0.6,1.3,1,2.2,1C388.6,144.8,389.4,144.5,389.9,143.9L389.9,143.9z
			 M384.7,144.6c-0.8-0.8-1.2-1.9-1.2-3.3c0-1.4,0.4-2.5,1.2-3.3c0.8-0.8,1.8-1.3,3-1.3c1.3,0,2.3,0.4,3,1.3
			c0.8,0.8,1.2,1.9,1.2,3.3c0,1.4-0.4,2.5-1.2,3.3c-0.8,0.8-1.8,1.2-3,1.2C386.5,145.9,385.5,145.5,384.7,144.6L384.7,144.6z"/>
		<path class="st10" d="M389.9,143.9c0.5-0.6,0.8-1.5,0.8-2.5c0-1-0.3-1.9-0.8-2.5c-0.5-0.6-1.3-1-2.2-1c-0.9,0-1.6,0.3-2.2,1
			c-0.5,0.6-0.8,1.5-0.8,2.5c0,1,0.3,1.9,0.8,2.5c0.5,0.6,1.3,1,2.2,1C388.6,144.8,389.4,144.5,389.9,143.9L389.9,143.9z
			 M384.7,144.6c-0.8-0.8-1.2-1.9-1.2-3.3c0-1.4,0.4-2.5,1.2-3.3c0.8-0.8,1.8-1.3,3-1.3c1.3,0,2.3,0.4,3,1.3
			c0.8,0.8,1.2,1.9,1.2,3.3c0,1.4-0.4,2.5-1.2,3.3c-0.8,0.8-1.8,1.2-3,1.2C386.5,145.9,385.5,145.5,384.7,144.6L384.7,144.6z"/>
		<line class="st11" x1="292.3" y1="173.6" x2="292.3" y2="59.4"/>
		<path class="st12" d="M83.3,143.1c0,0.3-0.1,0.7-0.2,1.1c-0.2,0.4-0.4,0.8-0.7,1.2c-0.3,0.4-0.7,0.7-1.2,0.9
			c-0.5,0.2-1.1,0.4-1.8,0.4c-0.5,0-1-0.1-1.4-0.2c-0.4-0.1-0.8-0.3-1.1-0.5c-0.3-0.2-0.6-0.5-0.9-0.9c-0.3-0.3-0.5-0.7-0.7-1.1
			c-0.2-0.4-0.3-0.9-0.4-1.3c-0.1-0.5-0.1-1-0.1-1.5c0-0.9,0.1-1.6,0.3-2.3c0.2-0.7,0.6-1.3,1-1.8c0.4-0.5,0.9-0.9,1.5-1.1
			c0.6-0.3,1.2-0.4,1.8-0.4c0.8,0,1.5,0.2,2.1,0.5c0.6,0.3,1.1,0.8,1.4,1.3c0.3,0.5,0.5,1,0.5,1.4c0,0.2-0.1,0.5-0.2,0.7
			c-0.2,0.2-0.3,0.3-0.6,0.3c-0.3,0-0.4-0.1-0.6-0.2c-0.1-0.1-0.3-0.4-0.4-0.7c-0.3-0.5-0.6-0.9-0.9-1.2c-0.3-0.3-0.8-0.4-1.3-0.4
			c-0.8,0-1.5,0.3-1.9,1c-0.5,0.7-0.7,1.7-0.7,2.9c0,0.8,0.1,1.5,0.3,2.1c0.2,0.6,0.5,1,0.9,1.2c0.4,0.3,0.8,0.4,1.4,0.4
			c0.6,0,1-0.2,1.4-0.5c0.4-0.3,0.7-0.8,0.9-1.4c0.1-0.3,0.2-0.5,0.3-0.7c0.1-0.2,0.3-0.3,0.6-0.3c0.2,0,0.4,0.1,0.6,0.3
			C83.2,142.6,83.3,142.8,83.3,143.1L83.3,143.1z"/>
		<path class="st12" d="M89.3,135.5c1,0,1.9,0.2,2.6,0.7c0.7,0.4,1.3,1.1,1.6,1.9c0.4,0.8,0.6,1.8,0.6,2.9c0,0.8-0.1,1.6-0.3,2.3
			c-0.2,0.7-0.5,1.3-0.9,1.8c-0.4,0.5-0.9,0.9-1.5,1.1c-0.6,0.3-1.3,0.4-2,0.4c-0.8,0-1.4-0.1-2-0.4c-0.6-0.3-1.1-0.7-1.5-1.2
			c-0.4-0.5-0.7-1.1-0.9-1.8c-0.2-0.7-0.3-1.4-0.3-2.3c0-0.8,0.1-1.6,0.3-2.3c0.2-0.7,0.5-1.3,0.9-1.8c0.4-0.5,0.9-0.9,1.5-1.1
			C87.9,135.7,88.6,135.5,89.3,135.5L89.3,135.5z M92.1,141.1c0-0.8-0.1-1.5-0.3-2c-0.2-0.6-0.6-1-1-1.3c-0.4-0.3-0.9-0.4-1.5-0.4
			c-0.4,0-0.8,0.1-1.1,0.2c-0.3,0.2-0.6,0.4-0.9,0.7c-0.2,0.3-0.4,0.7-0.6,1.2c-0.1,0.5-0.2,1-0.2,1.6c0,0.6,0.1,1.2,0.2,1.7
			c0.1,0.5,0.3,0.9,0.6,1.2c0.3,0.3,0.5,0.6,0.9,0.7c0.3,0.2,0.7,0.2,1.1,0.2c0.5,0,1-0.1,1.4-0.4c0.4-0.3,0.8-0.7,1-1.3
			C92,142.6,92.1,141.9,92.1,141.1L92.1,141.1z"/>
		<path class="st12" d="M98.3,136.8l3.8,6.3v-6.4c0-0.4,0.1-0.7,0.2-0.9c0.2-0.2,0.4-0.3,0.7-0.3c0.3,0,0.5,0.1,0.7,0.3
			c0.2,0.2,0.2,0.5,0.2,0.9v8.5c0,0.9-0.4,1.4-1.1,1.4c-0.2,0-0.3,0-0.5-0.1c-0.1-0.1-0.3-0.1-0.4-0.3c-0.1-0.1-0.2-0.3-0.3-0.4
			c-0.1-0.2-0.2-0.3-0.3-0.5l-3.7-6.3v6.3c0,0.4-0.1,0.7-0.3,0.9c-0.2,0.2-0.4,0.3-0.7,0.3c-0.3,0-0.5-0.1-0.7-0.3
			c-0.2-0.2-0.2-0.5-0.2-0.9v-8.3c0-0.4,0-0.6,0.1-0.8c0.1-0.2,0.2-0.4,0.4-0.5c0.2-0.1,0.4-0.2,0.6-0.2c0.2,0,0.3,0,0.4,0.1
			c0.1,0.1,0.2,0.2,0.3,0.3c0.1,0.1,0.2,0.2,0.3,0.4C98.1,136.5,98.2,136.7,98.3,136.8L98.3,136.8z"/>
		<path class="st12" d="M112.3,137.5h-2.1v7.8c0,0.5-0.1,0.8-0.3,1c-0.2,0.2-0.4,0.3-0.7,0.3c-0.3,0-0.5-0.1-0.7-0.3
			c-0.2-0.2-0.3-0.6-0.3-1v-7.8h-2.1c-0.3,0-0.6-0.1-0.7-0.2c-0.2-0.2-0.2-0.4-0.2-0.7c0-0.3,0.1-0.5,0.3-0.7
			c0.2-0.2,0.4-0.2,0.7-0.2h6.2c0.3,0,0.6,0.1,0.8,0.3c0.2,0.2,0.2,0.4,0.2,0.6c0,0.3-0.1,0.5-0.2,0.7
			C112.9,137.4,112.7,137.5,112.3,137.5L112.3,137.5z"/>
		<path class="st12" d="M117.1,141.9h-0.7v3.5c0,0.5-0.1,0.8-0.3,1c-0.2,0.2-0.4,0.3-0.7,0.3c-0.3,0-0.6-0.1-0.7-0.3
			c-0.2-0.2-0.3-0.6-0.3-1v-8.3c0-0.5,0.1-0.8,0.3-1c0.2-0.2,0.5-0.3,0.9-0.3h3.2c0.4,0,0.8,0,1.1,0.1c0.3,0,0.6,0.1,0.8,0.2
			c0.3,0.1,0.6,0.3,0.8,0.6c0.2,0.3,0.4,0.6,0.5,0.9c0.1,0.3,0.2,0.7,0.2,1.1c0,0.8-0.2,1.4-0.6,1.9c-0.4,0.5-1,0.8-1.9,1
			c0.4,0.2,0.7,0.5,1,0.9c0.3,0.4,0.6,0.8,0.8,1.3c0.2,0.5,0.4,0.9,0.6,1.2c0.1,0.4,0.2,0.6,0.2,0.7c0,0.1,0,0.3-0.1,0.4
			c-0.1,0.1-0.2,0.2-0.3,0.3c-0.1,0.1-0.3,0.1-0.5,0.1c-0.2,0-0.4-0.1-0.6-0.2c-0.2-0.1-0.3-0.3-0.4-0.4c-0.1-0.2-0.2-0.4-0.4-0.8
			l-0.8-1.4c-0.3-0.5-0.5-0.9-0.8-1.2c-0.2-0.3-0.4-0.5-0.7-0.6C117.8,141.9,117.5,141.9,117.1,141.9L117.1,141.9z M118.3,137.4
			h-1.8v3h1.8c0.5,0,0.9,0,1.2-0.1c0.3-0.1,0.6-0.2,0.7-0.5c0.2-0.2,0.3-0.5,0.3-0.9c0-0.3-0.1-0.6-0.2-0.8
			c-0.1-0.2-0.3-0.4-0.6-0.5C119.4,137.4,118.9,137.4,118.3,137.4L118.3,137.4z"/>
		<path class="st12" d="M128.5,135.5c1,0,1.9,0.2,2.6,0.7c0.7,0.4,1.3,1.1,1.6,1.9c0.4,0.8,0.6,1.8,0.6,2.9c0,0.8-0.1,1.6-0.3,2.3
			c-0.2,0.7-0.5,1.3-0.9,1.8c-0.4,0.5-0.9,0.9-1.5,1.1c-0.6,0.3-1.3,0.4-2,0.4c-0.8,0-1.4-0.1-2-0.4c-0.6-0.3-1.1-0.7-1.5-1.2
			c-0.4-0.5-0.7-1.1-0.9-1.8c-0.2-0.7-0.3-1.4-0.3-2.3c0-0.8,0.1-1.6,0.3-2.3c0.2-0.7,0.5-1.3,0.9-1.8c0.4-0.5,0.9-0.9,1.5-1.1
			C127.1,135.7,127.8,135.5,128.5,135.5L128.5,135.5z M131.3,141.1c0-0.8-0.1-1.5-0.3-2c-0.2-0.6-0.6-1-1-1.3
			c-0.4-0.3-0.9-0.4-1.5-0.4c-0.4,0-0.8,0.1-1.1,0.2c-0.3,0.2-0.6,0.4-0.9,0.7c-0.2,0.3-0.4,0.7-0.6,1.2c-0.1,0.5-0.2,1-0.2,1.6
			c0,0.6,0.1,1.2,0.2,1.7c0.1,0.5,0.3,0.9,0.6,1.2c0.3,0.3,0.5,0.6,0.9,0.7c0.3,0.2,0.7,0.2,1.1,0.2c0.5,0,1-0.1,1.4-0.4
			c0.4-0.3,0.8-0.7,1-1.3C131.2,142.6,131.3,141.9,131.3,141.1L131.3,141.1z"/>
		<path class="st12" d="M138.4,145.3v-8.5c0-0.4,0.1-0.8,0.3-1c0.2-0.2,0.4-0.3,0.7-0.3c0.3,0,0.5,0.1,0.7,0.3
			c0.2,0.2,0.3,0.5,0.3,1v8.5c0,0.4-0.1,0.8-0.3,1c-0.2,0.2-0.4,0.3-0.7,0.3c-0.3,0-0.5-0.1-0.7-0.3
			C138.5,146.1,138.4,145.8,138.4,145.3L138.4,145.3z"/>
		<path class="st12" d="M152.2,137.5h-2.1v7.8c0,0.5-0.1,0.8-0.3,1c-0.2,0.2-0.4,0.3-0.7,0.3c-0.3,0-0.5-0.1-0.7-0.3
			c-0.2-0.2-0.3-0.6-0.3-1v-7.8H146c-0.3,0-0.6-0.1-0.7-0.2c-0.2-0.2-0.2-0.4-0.2-0.7c0-0.3,0.1-0.5,0.2-0.7
			c0.2-0.2,0.4-0.2,0.7-0.2h6.2c0.3,0,0.6,0.1,0.8,0.3c0.2,0.2,0.2,0.4,0.2,0.6c0,0.3-0.1,0.5-0.2,0.7
			C152.8,137.4,152.6,137.5,152.2,137.5L152.2,137.5z"/>
		<path class="st12" d="M154.4,142v-5.2c0-0.4,0.1-0.8,0.3-1c0.2-0.2,0.4-0.3,0.7-0.3c0.3,0,0.5,0.1,0.7,0.3c0.2,0.2,0.3,0.6,0.3,1
			v5.3c0,0.6,0.1,1.1,0.2,1.5c0.1,0.4,0.3,0.7,0.6,0.9c0.3,0.2,0.7,0.3,1.3,0.3c0.8,0,1.3-0.2,1.6-0.7c0.3-0.5,0.5-1.1,0.5-2.1v-5.3
			c0-0.4,0.1-0.8,0.3-1c0.2-0.2,0.4-0.3,0.7-0.3c0.3,0,0.5,0.1,0.7,0.3c0.2,0.2,0.3,0.5,0.3,1v5.2c0,0.8-0.1,1.5-0.2,2.1
			c-0.1,0.6-0.4,1.1-0.8,1.5c-0.4,0.4-0.8,0.6-1.2,0.8c-0.5,0.2-1,0.2-1.6,0.2c-0.7,0-1.4-0.1-1.9-0.3c-0.5-0.2-1-0.5-1.3-0.8
			c-0.3-0.4-0.6-0.9-0.7-1.4C154.5,143.6,154.4,142.9,154.4,142L154.4,142z"/>
		<path class="st12" d="M168,144.9l-1.5-6.9v7.4c0,0.4-0.1,0.7-0.3,0.9c-0.2,0.2-0.4,0.3-0.7,0.3c-0.3,0-0.5-0.1-0.7-0.3
			c-0.2-0.2-0.3-0.5-0.3-0.9v-8.5c0-0.5,0.1-0.8,0.3-0.9c0.2-0.2,0.5-0.3,0.9-0.3h0.6c0.4,0,0.6,0,0.8,0.1c0.2,0.1,0.3,0.2,0.4,0.4
			c0.1,0.2,0.2,0.5,0.3,0.9l1.4,5.9l1.4-5.9c0.1-0.4,0.2-0.7,0.3-0.9c0.1-0.2,0.2-0.3,0.4-0.4c0.2-0.1,0.4-0.1,0.8-0.1h0.6
			c0.4,0,0.7,0.1,0.9,0.3c0.2,0.2,0.3,0.5,0.3,0.9v8.5c0,0.4-0.1,0.7-0.2,0.9c-0.2,0.2-0.4,0.3-0.7,0.3c-0.3,0-0.5-0.1-0.6-0.3
			c-0.2-0.2-0.3-0.5-0.3-0.9V138l-1.6,6.9c-0.1,0.4-0.2,0.8-0.3,1c-0.1,0.2-0.2,0.4-0.3,0.6c-0.2,0.2-0.4,0.3-0.7,0.3
			c-0.2,0-0.4-0.1-0.6-0.2c-0.2-0.1-0.3-0.2-0.4-0.4c-0.1-0.2-0.2-0.4-0.2-0.6C168.1,145.3,168,145.1,168,144.9L168,144.9z"/>
		<path class="st12" d="M180.2,135.5c1,0,1.9,0.2,2.6,0.7c0.7,0.4,1.3,1.1,1.6,1.9c0.4,0.8,0.6,1.8,0.6,2.9c0,0.8-0.1,1.6-0.3,2.3
			c-0.2,0.7-0.5,1.3-0.9,1.8c-0.4,0.5-0.9,0.9-1.5,1.1c-0.6,0.3-1.3,0.4-2,0.4c-0.8,0-1.4-0.1-2-0.4c-0.6-0.3-1.1-0.7-1.5-1.2
			c-0.4-0.5-0.7-1.1-0.9-1.8c-0.2-0.7-0.3-1.4-0.3-2.3c0-0.8,0.1-1.6,0.3-2.3c0.2-0.7,0.5-1.3,0.9-1.8c0.4-0.5,0.9-0.9,1.5-1.1
			C178.8,135.7,179.5,135.5,180.2,135.5L180.2,135.5z M183,141.1c0-0.8-0.1-1.5-0.3-2c-0.2-0.6-0.6-1-1-1.3
			c-0.4-0.3-0.9-0.4-1.5-0.4c-0.4,0-0.8,0.1-1.1,0.2c-0.3,0.2-0.6,0.4-0.9,0.7c-0.2,0.3-0.4,0.7-0.6,1.2c-0.1,0.5-0.2,1-0.2,1.6
			c0,0.6,0.1,1.2,0.2,1.7c0.1,0.5,0.3,0.9,0.6,1.2c0.3,0.3,0.5,0.6,0.9,0.7c0.3,0.2,0.7,0.2,1.1,0.2c0.5,0,1-0.1,1.4-0.4
			c0.4-0.3,0.8-0.7,1-1.3C182.9,142.6,183,141.9,183,141.1L183,141.1z"/>
		<path class="st12" d="M189.3,141.9h-0.7v3.5c0,0.5-0.1,0.8-0.3,1c-0.2,0.2-0.4,0.3-0.7,0.3c-0.3,0-0.6-0.1-0.7-0.3
			c-0.2-0.2-0.3-0.6-0.3-1v-8.3c0-0.5,0.1-0.8,0.3-1c0.2-0.2,0.5-0.3,0.9-0.3h3.2c0.4,0,0.8,0,1.1,0.1c0.3,0,0.6,0.1,0.8,0.2
			c0.3,0.1,0.6,0.3,0.8,0.6c0.2,0.3,0.4,0.6,0.5,0.9c0.1,0.3,0.2,0.7,0.2,1.1c0,0.8-0.2,1.4-0.6,1.9c-0.4,0.5-1,0.8-1.9,1
			c0.3,0.2,0.7,0.5,1,0.9c0.3,0.4,0.6,0.8,0.8,1.3c0.3,0.5,0.4,0.9,0.6,1.2c0.1,0.4,0.2,0.6,0.2,0.7c0,0.1,0,0.3-0.1,0.4
			c-0.1,0.1-0.2,0.2-0.3,0.3c-0.1,0.1-0.3,0.1-0.5,0.1c-0.2,0-0.4-0.1-0.6-0.2c-0.1-0.1-0.3-0.3-0.4-0.4c-0.1-0.2-0.2-0.4-0.4-0.8
			l-0.8-1.4c-0.3-0.5-0.5-0.9-0.8-1.2c-0.2-0.3-0.4-0.5-0.7-0.6C190,141.9,189.7,141.9,189.3,141.9L189.3,141.9z M190.4,137.4h-1.8
			v3h1.8c0.5,0,0.9,0,1.2-0.1c0.3-0.1,0.6-0.2,0.7-0.5c0.2-0.2,0.3-0.5,0.3-0.9c0-0.3-0.1-0.6-0.2-0.8c-0.1-0.2-0.3-0.4-0.6-0.5
			C191.6,137.4,191.1,137.4,190.4,137.4L190.4,137.4z"/>
		<path class="st12" d="M196.5,145.3v-8.5c0-0.4,0.1-0.8,0.3-1c0.2-0.2,0.4-0.3,0.7-0.3c0.3,0,0.5,0.1,0.7,0.3
			c0.2,0.2,0.3,0.5,0.3,1v8.5c0,0.4-0.1,0.8-0.3,1c-0.2,0.2-0.4,0.3-0.7,0.3c-0.3,0-0.5-0.1-0.7-0.3
			C196.6,146.1,196.5,145.8,196.5,145.3L196.5,145.3z"/>
		<path class="st12" d="M36.3,121.8v7.8h4c0.3,0,0.6,0.1,0.7,0.3c0.2,0.2,0.3,0.4,0.3,0.6s-0.1,0.5-0.2,0.6
			c-0.2,0.2-0.4,0.2-0.7,0.2h-4.7c-0.4,0-0.7-0.1-0.9-0.3c-0.2-0.2-0.3-0.6-0.3-1v-8.3c0-0.4,0.1-0.8,0.3-1c0.2-0.2,0.4-0.3,0.7-0.3
			c0.3,0,0.5,0.1,0.7,0.3C36.2,121,36.3,121.4,36.3,121.8L36.3,121.8z"/>
		<path class="st12" d="M48.9,122.4h-4.4v2.6h4.1c0.3,0,0.5,0.1,0.7,0.2c0.1,0.1,0.2,0.3,0.2,0.6c0,0.2-0.1,0.4-0.2,0.6
			c-0.1,0.2-0.4,0.2-0.7,0.2h-4.1v3.1H49c0.3,0,0.5,0.1,0.7,0.2c0.2,0.2,0.2,0.4,0.2,0.6c0,0.3-0.1,0.5-0.2,0.6
			c-0.2,0.2-0.4,0.2-0.7,0.2h-5.3c-0.4,0-0.7-0.1-0.9-0.3c-0.2-0.2-0.3-0.6-0.3-1V122c0-0.3,0-0.6,0.1-0.8c0.1-0.2,0.2-0.3,0.4-0.4
			c0.2-0.1,0.4-0.1,0.7-0.1h5.2c0.3,0,0.5,0.1,0.7,0.2c0.2,0.2,0.2,0.4,0.2,0.6c0,0.3-0.1,0.5-0.2,0.6
			C49.4,122.3,49.2,122.4,48.9,122.4L48.9,122.4z"/>
		<path class="st12" d="M60.4,127.1v2.1c0,0.3,0,0.5-0.1,0.7c-0.1,0.2-0.1,0.3-0.3,0.4c-0.1,0.1-0.3,0.3-0.5,0.4
			c-0.6,0.4-1.2,0.6-1.7,0.8c-0.5,0.2-1.1,0.2-1.8,0.2c-0.7,0-1.4-0.1-2-0.4c-0.6-0.3-1.1-0.6-1.6-1.1c-0.4-0.5-0.8-1.1-1-1.8
			c-0.2-0.7-0.3-1.5-0.3-2.3c0-0.8,0.1-1.6,0.3-2.3c0.2-0.7,0.6-1.3,1-1.8c0.4-0.5,1-0.9,1.6-1.1c0.6-0.3,1.3-0.4,2.1-0.4
			c0.7,0,1.2,0.1,1.7,0.3c0.5,0.2,0.9,0.4,1.2,0.7c0.3,0.3,0.5,0.6,0.7,0.9c0.2,0.3,0.2,0.6,0.2,0.9c0,0.3-0.1,0.5-0.3,0.7
			c-0.2,0.2-0.4,0.3-0.7,0.3c-0.1,0-0.3,0-0.4-0.1c-0.1-0.1-0.2-0.2-0.3-0.3c-0.2-0.4-0.4-0.7-0.6-1c-0.2-0.2-0.4-0.4-0.7-0.5
			c-0.3-0.1-0.6-0.2-1.1-0.2c-0.5,0-0.9,0.1-1.2,0.3c-0.4,0.2-0.7,0.4-0.9,0.8c-0.3,0.3-0.5,0.7-0.6,1.2c-0.1,0.5-0.2,1-0.2,1.6
			c0,1.3,0.3,2.2,0.8,2.9c0.5,0.7,1.2,1,2.2,1c0.5,0,0.9-0.1,1.3-0.2c0.4-0.1,0.8-0.3,1.2-0.6v-1.7h-1.5c-0.4,0-0.6-0.1-0.8-0.2
			c-0.2-0.1-0.3-0.3-0.3-0.6c0-0.2,0.1-0.4,0.2-0.6c0.2-0.2,0.4-0.2,0.6-0.2h2.2c0.3,0,0.5,0,0.7,0.1c0.2,0.1,0.3,0.2,0.5,0.4
			C60.3,126.4,60.4,126.7,60.4,127.1L60.4,127.1z"/>
		<path class="st12" d="M68.4,130.2l-0.5-1.4H64l-0.5,1.4c-0.2,0.5-0.3,0.9-0.5,1.1c-0.1,0.2-0.3,0.3-0.6,0.3
			c-0.2,0-0.5-0.1-0.7-0.3c-0.2-0.2-0.3-0.4-0.3-0.7c0-0.1,0-0.3,0.1-0.5c0-0.2,0.1-0.4,0.2-0.6l2.5-7c0.1-0.2,0.2-0.4,0.2-0.7
			c0.1-0.3,0.2-0.5,0.3-0.7c0.1-0.2,0.3-0.3,0.4-0.4c0.2-0.1,0.4-0.2,0.7-0.2c0.3,0,0.5,0.1,0.7,0.2c0.2,0.1,0.3,0.3,0.4,0.4
			c0.1,0.2,0.2,0.4,0.3,0.6c0.1,0.2,0.2,0.5,0.3,0.8l2.5,6.9c0.2,0.5,0.3,0.9,0.3,1.2c0,0.2-0.1,0.5-0.3,0.7
			c-0.2,0.2-0.4,0.3-0.7,0.3c-0.2,0-0.3,0-0.4-0.1c-0.1-0.1-0.2-0.1-0.3-0.2c-0.1-0.1-0.2-0.3-0.2-0.5
			C68.6,130.6,68.5,130.4,68.4,130.2L68.4,130.2z M64.6,127.2h2.9l-1.5-4.4L64.6,127.2L64.6,127.2z"/>
		<path class="st12" d="M75.4,130.3v-8.5c0-0.4,0.1-0.8,0.3-1c0.2-0.2,0.4-0.3,0.7-0.3c0.3,0,0.5,0.1,0.7,0.3c0.2,0.2,0.3,0.5,0.3,1
			v8.5c0,0.4-0.1,0.8-0.3,1c-0.2,0.2-0.4,0.3-0.7,0.3c-0.3,0-0.5-0.1-0.7-0.3C75.5,131.1,75.4,130.7,75.4,130.3L75.4,130.3z"/>
		<path class="st12" d="M85.9,122.5h-2.1v7.8c0,0.5-0.1,0.8-0.3,1c-0.2,0.2-0.4,0.3-0.7,0.3c-0.3,0-0.5-0.1-0.7-0.3
			c-0.2-0.2-0.3-0.5-0.3-1v-7.8h-2.1c-0.3,0-0.6-0.1-0.7-0.2c-0.2-0.2-0.2-0.4-0.2-0.6c0-0.3,0.1-0.5,0.2-0.7
			c0.2-0.2,0.4-0.2,0.7-0.2h6.2c0.3,0,0.6,0.1,0.8,0.2c0.2,0.2,0.3,0.4,0.3,0.7c0,0.3-0.1,0.5-0.3,0.6
			C86.5,122.4,86.2,122.5,85.9,122.5L85.9,122.5z"/>
		<path class="st12" d="M94.3,130.2l-0.5-1.4h-3.9l-0.5,1.4c-0.2,0.5-0.3,0.9-0.5,1.1c-0.1,0.2-0.3,0.3-0.6,0.3
			c-0.2,0-0.5-0.1-0.7-0.3c-0.2-0.2-0.3-0.4-0.3-0.7c0-0.1,0-0.3,0.1-0.5c0-0.2,0.1-0.4,0.2-0.6l2.5-7c0.1-0.2,0.2-0.4,0.3-0.7
			c0.1-0.3,0.2-0.5,0.3-0.7c0.1-0.2,0.3-0.3,0.4-0.4c0.2-0.1,0.4-0.2,0.7-0.2c0.3,0,0.5,0.1,0.7,0.2c0.2,0.1,0.3,0.3,0.4,0.4
			c0.1,0.2,0.2,0.4,0.3,0.6c0.1,0.2,0.2,0.5,0.3,0.8l2.5,6.9c0.2,0.5,0.3,0.9,0.3,1.2c0,0.2-0.1,0.5-0.3,0.7
			c-0.2,0.2-0.4,0.3-0.7,0.3c-0.2,0-0.3,0-0.4-0.1c-0.1-0.1-0.2-0.1-0.3-0.2c-0.1-0.1-0.2-0.3-0.2-0.5
			C94.4,130.6,94.3,130.4,94.3,130.2L94.3,130.2z M90.4,127.2h2.9l-1.5-4.4L90.4,127.2L90.4,127.2z"/>
		<path class="st12" d="M99.7,121.8v7.8h4c0.3,0,0.6,0.1,0.7,0.3c0.2,0.2,0.3,0.4,0.3,0.6s-0.1,0.5-0.3,0.6
			c-0.2,0.2-0.4,0.2-0.7,0.2H99c-0.4,0-0.7-0.1-0.9-0.3c-0.2-0.2-0.3-0.6-0.3-1v-8.3c0-0.4,0.1-0.8,0.3-1c0.2-0.2,0.4-0.3,0.7-0.3
			c0.3,0,0.5,0.1,0.7,0.3C99.6,121,99.7,121.4,99.7,121.8L99.7,121.8z"/>
		<path class="st12" d="M106.1,130.3v-8.5c0-0.4,0.1-0.8,0.3-1c0.2-0.2,0.4-0.3,0.7-0.3c0.3,0,0.5,0.1,0.7,0.3
			c0.2,0.2,0.3,0.5,0.3,1v8.5c0,0.4-0.1,0.8-0.3,1c-0.2,0.2-0.4,0.3-0.7,0.3c-0.3,0-0.5-0.1-0.7-0.3
			C106.1,131.1,106.1,130.7,106.1,130.3L106.1,130.3z"/>
		<path class="st12" d="M116.4,130.2l-0.5-1.4H112l-0.5,1.4c-0.2,0.5-0.3,0.9-0.5,1.1c-0.1,0.2-0.3,0.3-0.6,0.3
			c-0.2,0-0.5-0.1-0.7-0.3c-0.2-0.2-0.3-0.4-0.3-0.7c0-0.1,0-0.3,0.1-0.5c0-0.2,0.1-0.4,0.2-0.6l2.5-7c0.1-0.2,0.2-0.4,0.3-0.7
			c0.1-0.3,0.2-0.5,0.3-0.7c0.1-0.2,0.3-0.3,0.4-0.4c0.2-0.1,0.4-0.2,0.7-0.2c0.3,0,0.5,0.1,0.7,0.2c0.2,0.1,0.3,0.3,0.4,0.4
			c0.1,0.2,0.2,0.4,0.3,0.6c0.1,0.2,0.2,0.5,0.3,0.8l2.5,6.9c0.2,0.5,0.3,0.9,0.3,1.2c0,0.2-0.1,0.5-0.3,0.7
			c-0.2,0.2-0.4,0.3-0.7,0.3c-0.2,0-0.3,0-0.4-0.1c-0.1-0.1-0.2-0.1-0.3-0.2c-0.1-0.1-0.2-0.3-0.2-0.5
			C116.5,130.6,116.5,130.4,116.4,130.2L116.4,130.2z M112.5,127.2h2.9l-1.5-4.4L112.5,127.2L112.5,127.2z"/>
		<path class="st12" d="M122.5,121.8l3.8,6.3v-6.4c0-0.4,0.1-0.7,0.2-0.9c0.2-0.2,0.4-0.3,0.7-0.3c0.3,0,0.5,0.1,0.7,0.3
			c0.2,0.2,0.2,0.5,0.2,0.9v8.5c0,0.9-0.4,1.4-1.1,1.4c-0.2,0-0.3,0-0.5-0.1c-0.1-0.1-0.3-0.1-0.4-0.3c-0.1-0.1-0.2-0.3-0.3-0.4
			c-0.1-0.2-0.2-0.3-0.3-0.5l-3.7-6.3v6.3c0,0.4-0.1,0.7-0.3,0.9c-0.2,0.2-0.4,0.3-0.7,0.3c-0.3,0-0.5-0.1-0.7-0.3
			c-0.2-0.2-0.3-0.5-0.3-0.9v-8.3c0-0.3,0-0.6,0.1-0.8c0.1-0.2,0.2-0.4,0.4-0.5c0.2-0.1,0.4-0.2,0.6-0.2c0.2,0,0.3,0,0.4,0.1
			c0.1,0.1,0.2,0.1,0.3,0.3c0.1,0.1,0.2,0.2,0.3,0.4C122.3,121.4,122.4,121.6,122.5,121.8L122.5,121.8z"/>
		<path class="st12" d="M136.4,130.2l-0.5-1.4H132l-0.5,1.4c-0.2,0.5-0.3,0.9-0.5,1.1c-0.1,0.2-0.3,0.3-0.6,0.3
			c-0.2,0-0.5-0.1-0.7-0.3c-0.2-0.2-0.3-0.4-0.3-0.7c0-0.1,0-0.3,0.1-0.5c0-0.2,0.1-0.4,0.2-0.6l2.5-7c0.1-0.2,0.2-0.4,0.3-0.7
			c0.1-0.3,0.2-0.5,0.3-0.7c0.1-0.2,0.3-0.3,0.4-0.4c0.2-0.1,0.4-0.2,0.7-0.2c0.3,0,0.5,0.1,0.7,0.2c0.2,0.1,0.3,0.3,0.4,0.4
			c0.1,0.2,0.2,0.4,0.3,0.6c0.1,0.2,0.2,0.5,0.3,0.8l2.5,6.9c0.2,0.5,0.3,0.9,0.3,1.2c0,0.2-0.1,0.5-0.3,0.7
			c-0.2,0.2-0.4,0.3-0.7,0.3c-0.2,0-0.3,0-0.4-0.1c-0.1-0.1-0.2-0.1-0.3-0.2c-0.1-0.1-0.2-0.3-0.2-0.5
			C136.6,130.6,136.5,130.4,136.4,130.2L136.4,130.2z M132.5,127.2h2.9l-1.5-4.4L132.5,127.2L132.5,127.2z"/>
		<path class="st12" d="M147.1,127.3h-1.8v3c0,0.4-0.1,0.8-0.3,1c-0.2,0.2-0.4,0.3-0.7,0.3c-0.3,0-0.5-0.1-0.7-0.3
			c-0.2-0.2-0.3-0.5-0.3-1V122c0-0.5,0.1-0.8,0.3-1c0.2-0.2,0.5-0.3,0.9-0.3h2.5c0.7,0,1.3,0.1,1.7,0.2c0.4,0.1,0.7,0.3,1,0.6
			c0.3,0.3,0.5,0.6,0.7,1c0.1,0.4,0.2,0.9,0.2,1.4c0,1.1-0.3,1.9-0.9,2.5C149.2,127,148.3,127.3,147.1,127.3L147.1,127.3z
			 M146.6,122.3h-1.3v3.3h1.3c0.5,0,0.8-0.1,1.2-0.2c0.3-0.1,0.6-0.3,0.7-0.5c0.2-0.2,0.2-0.6,0.2-1c0-0.5-0.1-0.9-0.4-1.2
			C148.1,122.5,147.5,122.3,146.6,122.3L146.6,122.3z"/>
		<path class="st12" d="M158.8,122.4h-4.4v2.6h4.1c0.3,0,0.5,0.1,0.7,0.2c0.2,0.1,0.2,0.3,0.2,0.6c0,0.2-0.1,0.4-0.2,0.6
			c-0.1,0.2-0.4,0.2-0.7,0.2h-4.1v3.1h4.6c0.3,0,0.5,0.1,0.7,0.2c0.2,0.2,0.2,0.4,0.2,0.6c0,0.3-0.1,0.5-0.2,0.6
			c-0.2,0.2-0.4,0.2-0.7,0.2h-5.3c-0.4,0-0.7-0.1-0.9-0.3c-0.2-0.2-0.3-0.6-0.3-1V122c0-0.3,0-0.6,0.1-0.8c0.1-0.2,0.2-0.3,0.4-0.4
			c0.2-0.1,0.4-0.1,0.7-0.1h5.2c0.3,0,0.5,0.1,0.7,0.2c0.2,0.2,0.2,0.4,0.2,0.6c0,0.3-0.1,0.5-0.2,0.6
			C159.3,122.3,159.1,122.4,158.8,122.4L158.8,122.4z"/>
		<path class="st12" d="M164,126.9h-0.7v3.5c0,0.5-0.1,0.8-0.3,1c-0.2,0.2-0.4,0.3-0.7,0.3c-0.3,0-0.6-0.1-0.7-0.3
			c-0.2-0.2-0.3-0.6-0.3-1V122c0-0.5,0.1-0.8,0.3-1c0.2-0.2,0.5-0.3,0.9-0.3h3.2c0.4,0,0.8,0,1.1,0.1c0.3,0,0.6,0.1,0.8,0.3
			c0.3,0.1,0.6,0.3,0.8,0.6c0.2,0.3,0.4,0.6,0.5,0.9c0.1,0.3,0.2,0.7,0.2,1.1c0,0.8-0.2,1.4-0.6,1.9c-0.4,0.5-1,0.8-1.9,1
			c0.3,0.2,0.7,0.5,1,0.9c0.3,0.4,0.6,0.8,0.8,1.3c0.3,0.4,0.4,0.9,0.6,1.2c0.1,0.4,0.2,0.6,0.2,0.7c0,0.1,0,0.3-0.1,0.4
			c-0.1,0.1-0.2,0.2-0.3,0.3c-0.1,0.1-0.3,0.1-0.5,0.1c-0.2,0-0.4-0.1-0.6-0.2c-0.2-0.1-0.3-0.3-0.4-0.4c-0.1-0.2-0.2-0.4-0.4-0.8
			l-0.8-1.4c-0.3-0.5-0.5-0.9-0.8-1.2c-0.2-0.3-0.4-0.5-0.7-0.6C164.7,126.9,164.4,126.9,164,126.9L164,126.9z M165.2,122.3h-1.8v3
			h1.8c0.5,0,0.9,0,1.2-0.1c0.3-0.1,0.6-0.2,0.7-0.5c0.2-0.2,0.3-0.5,0.3-0.9c0-0.3-0.1-0.6-0.2-0.8c-0.1-0.2-0.3-0.4-0.6-0.5
			C166.3,122.4,165.8,122.3,165.2,122.3L165.2,122.3z"/>
		<path class="st12" d="M176.4,121.8v7.8h4c0.3,0,0.6,0.1,0.7,0.3c0.2,0.2,0.3,0.4,0.3,0.6s-0.1,0.5-0.3,0.6
			c-0.2,0.2-0.4,0.2-0.7,0.2h-4.7c-0.4,0-0.7-0.1-0.9-0.3c-0.2-0.2-0.3-0.6-0.3-1v-8.3c0-0.4,0.1-0.8,0.3-1c0.2-0.2,0.4-0.3,0.7-0.3
			c0.3,0,0.5,0.1,0.7,0.3C176.3,121,176.4,121.4,176.4,121.8L176.4,121.8z"/>
		<path class="st12" d="M188.9,130.2l-0.5-1.4h-3.9l-0.5,1.4c-0.2,0.5-0.3,0.9-0.5,1.1c-0.1,0.2-0.3,0.3-0.6,0.3
			c-0.2,0-0.5-0.1-0.7-0.3c-0.2-0.2-0.3-0.4-0.3-0.7c0-0.1,0-0.3,0.1-0.5c0-0.2,0.1-0.4,0.2-0.6l2.5-7c0.1-0.2,0.2-0.4,0.3-0.7
			c0.1-0.3,0.2-0.5,0.3-0.7c0.1-0.2,0.3-0.3,0.4-0.4c0.2-0.1,0.4-0.2,0.7-0.2c0.3,0,0.5,0.1,0.7,0.2c0.2,0.1,0.3,0.3,0.4,0.4
			c0.1,0.2,0.2,0.4,0.3,0.6c0.1,0.2,0.2,0.5,0.3,0.8l2.5,6.9c0.2,0.5,0.3,0.9,0.3,1.2c0,0.2-0.1,0.5-0.3,0.7
			c-0.2,0.2-0.4,0.3-0.7,0.3c-0.2,0-0.3,0-0.4-0.1c-0.1-0.1-0.2-0.1-0.3-0.2c-0.1-0.1-0.2-0.3-0.2-0.5
			C189,130.6,188.9,130.4,188.9,130.2L188.9,130.2z M185,127.2h2.9l-1.5-4.4L185,127.2L185,127.2z"/>
		<path class="st12" d="M197.7,121.8v7.8h4c0.3,0,0.6,0.1,0.7,0.3c0.2,0.2,0.3,0.4,0.3,0.6s-0.1,0.5-0.2,0.6
			c-0.2,0.2-0.4,0.2-0.7,0.2H197c-0.4,0-0.7-0.1-0.9-0.3c-0.2-0.2-0.3-0.6-0.3-1v-8.3c0-0.4,0.1-0.8,0.3-1c0.2-0.2,0.4-0.3,0.7-0.3
			c0.3,0,0.5,0.1,0.7,0.3C197.6,121,197.7,121.4,197.7,121.8L197.7,121.8z"/>
		<path class="st12" d="M208.2,120.5c1,0,1.9,0.2,2.6,0.7c0.7,0.4,1.3,1.1,1.6,1.9c0.4,0.8,0.6,1.8,0.6,2.9c0,0.8-0.1,1.6-0.3,2.3
			c-0.2,0.7-0.5,1.3-0.9,1.8c-0.4,0.5-0.9,0.9-1.5,1.1c-0.6,0.3-1.3,0.4-2,0.4c-0.8,0-1.4-0.1-2-0.4c-0.6-0.3-1.1-0.7-1.5-1.2
			c-0.4-0.5-0.7-1.1-0.9-1.8c-0.2-0.7-0.3-1.4-0.3-2.3c0-0.8,0.1-1.6,0.3-2.3c0.2-0.7,0.5-1.3,0.9-1.8c0.4-0.5,0.9-0.9,1.5-1.1
			C206.8,120.6,207.5,120.5,208.2,120.5L208.2,120.5z M211,126c0-0.8-0.1-1.5-0.3-2.1c-0.2-0.6-0.6-1-1-1.3
			c-0.4-0.3-0.9-0.4-1.5-0.4c-0.4,0-0.8,0.1-1.1,0.2c-0.3,0.2-0.6,0.4-0.9,0.7c-0.2,0.3-0.4,0.7-0.6,1.2c-0.1,0.5-0.2,1-0.2,1.6
			c0,0.6,0.1,1.2,0.2,1.7c0.1,0.5,0.3,0.9,0.6,1.2c0.3,0.3,0.5,0.6,0.9,0.7c0.3,0.2,0.7,0.2,1.1,0.2c0.5,0,1-0.1,1.4-0.4
			c0.4-0.3,0.8-0.7,1-1.3C210.9,127.6,211,126.9,211,126L211,126z"/>
		<path class="st12" d="M221,122.5h-2.1v7.8c0,0.5-0.1,0.8-0.3,1c-0.2,0.2-0.4,0.3-0.7,0.3c-0.3,0-0.5-0.1-0.7-0.3
			c-0.2-0.2-0.3-0.5-0.3-1v-7.8h-2.1c-0.3,0-0.6-0.1-0.7-0.2c-0.2-0.2-0.2-0.4-0.2-0.6c0-0.3,0.1-0.5,0.2-0.7
			c0.2-0.2,0.4-0.2,0.7-0.2h6.2c0.3,0,0.6,0.1,0.8,0.2c0.2,0.2,0.3,0.4,0.3,0.7c0,0.3-0.1,0.5-0.3,0.6
			C221.6,122.4,221.3,122.5,221,122.5L221,122.5z"/>
		<path class="st12" d="M229.4,122.5h-2.1v7.8c0,0.5-0.1,0.8-0.3,1c-0.2,0.2-0.4,0.3-0.7,0.3c-0.3,0-0.5-0.1-0.7-0.3
			c-0.2-0.2-0.3-0.5-0.3-1v-7.8h-2.1c-0.3,0-0.6-0.1-0.7-0.2c-0.2-0.2-0.2-0.4-0.2-0.6c0-0.3,0.1-0.5,0.2-0.7
			c0.2-0.2,0.4-0.2,0.7-0.2h6.2c0.3,0,0.6,0.1,0.8,0.2c0.2,0.2,0.3,0.4,0.3,0.7c0,0.3-0.1,0.5-0.3,0.6
			C230,122.4,229.8,122.5,229.4,122.5L229.4,122.5z"/>
		<path class="st12" d="M237.8,130.2l-0.5-1.4h-3.9l-0.5,1.4c-0.2,0.5-0.3,0.9-0.5,1.1c-0.1,0.2-0.3,0.3-0.6,0.3
			c-0.2,0-0.5-0.1-0.7-0.3c-0.2-0.2-0.3-0.4-0.3-0.7c0-0.1,0-0.3,0.1-0.5c0-0.2,0.1-0.4,0.2-0.6l2.5-7c0.1-0.2,0.2-0.4,0.2-0.7
			c0.1-0.3,0.2-0.5,0.3-0.7c0.1-0.2,0.3-0.3,0.4-0.4c0.2-0.1,0.4-0.2,0.7-0.2s0.5,0.1,0.7,0.2c0.2,0.1,0.3,0.3,0.4,0.4
			c0.1,0.2,0.2,0.4,0.3,0.6c0.1,0.2,0.2,0.5,0.3,0.8l2.5,6.9c0.2,0.5,0.3,0.9,0.3,1.2c0,0.2-0.1,0.5-0.3,0.7
			c-0.2,0.2-0.4,0.3-0.7,0.3c-0.2,0-0.3,0-0.4-0.1c-0.1-0.1-0.2-0.1-0.3-0.2c-0.1-0.1-0.2-0.3-0.2-0.5
			C238,130.6,237.9,130.4,237.8,130.2L237.8,130.2z M233.9,127.2h2.9l-1.5-4.4L233.9,127.2L233.9,127.2z"/>
		<path class="st8" d="M66.1,64c-2.3-6.2,0.9-13.1,7.1-15.3c6.2-2.3,13.1,0.9,15.3,7.2c2.3,6.2-0.9,13.1-7.1,15.3
			C75.3,73.4,68.4,70.2,66.1,64L66.1,64z"/>
		<path class="st8" d="M70.5,85.3c-11.3,4.1-23.8-1.7-27.9-13L24,21.2c-1.6-4.5,0.7-9.5,5.2-11.2l4.1-1.5c4.5-1.6,9.5,0.7,11.2,5.2
			L63,64.9c3.1,8.5,12.5,12.8,20.9,9.8l38.3-14c1.4-0.5,3,0.2,3.5,1.6c0.5,1.4-0.2,3-1.6,3.5L70.5,85.3L70.5,85.3z"/>
		<path class="st9" d="M54.8,102.6c-11.3,4.1-23.8-1.7-27.9-13L9.2,41c-1.1-3.1,0.5-6.5,3.6-7.7l3.1-1.1c3.1-1.1,6.5,0.5,7.7,3.6
			l16.6,45.5C43.8,91.5,55,96.7,65.2,93l22-8c1.4-0.5,3,0.2,3.5,1.6c0.5,1.4-0.2,3-1.6,3.5L54.8,102.6L54.8,102.6z"/>
		<path class="st12" d="M231.4,69.8c0-2.2-1.7-3.9-3.9-3.9h-7.3c-1.9,0-3.4-1.5-3.4-3.3c0-1.9,1.5-3.4,3.4-3.4h30.2
			c1.8,0,3.4,1.5,3.4,3.4c0,1.9-1.5,3.3-3.4,3.3h-7.3c-2.2,0-3.9,1.8-3.9,3.9V100c0,2.2-1.7,3.9-3.9,3.9c-2.2,0-3.9-1.8-3.9-3.9
			V69.8L231.4,69.8z M202.5,97.2h16.2c1.9,0,3.4,1.5,3.4,3.4c0,1.8-1.5,3.4-3.4,3.4h-24c-2.2,0-3.9-1.8-3.9-3.9V63.1
			c0-2.2,1.8-3.9,3.9-3.9c2.2,0,3.9,1.7,3.9,3.9v30.2C198.6,95.5,200.4,97.2,202.5,97.2L202.5,97.2z M146.3,97.2h16.2
			c1.9,0,3.4,1.5,3.4,3.4c0,1.8-1.5,3.4-3.4,3.4h-24c-2.2,0-3.9-1.8-3.9-3.9V63.1c0-2.2,1.8-3.9,3.9-3.9c2.2,0,3.9,1.7,3.9,3.9v30.2
			C142.3,95.5,144.1,97.2,146.3,97.2L146.3,97.2z M176.5,59.2c2.2,0,3.9,1.7,3.9,3.9V100c0,2.2-1.8,3.9-3.9,3.9
			c-2.2,0-3.9-1.8-3.9-3.9V63.1C172.6,61,174.4,59.2,176.5,59.2L176.5,59.2z"/>
		<path class="st13" d="M213.3,155.5c0,0.4-0.2,0.9-0.7,1.4c-0.5,0.5-1.1,0.8-2,0.8c-0.4,0-1,0.1-1.6,0.1c-0.6,0-1.2,0-1.8-0.2
			c-0.3,0.4-0.3,0.5-0.3,0.6c0,0.5,0,1,0.1,1.5c0.1,0.5,0.5,0.9,1.1,1.1l1,0.4c0.5,0.2,0.9,0.3,1.2,0.3c0.4,0,0.6,0.1,0.6,0.1
			c0,0,0.1,0,0.3,0c0.1,0,0.3,0,0.5-0.1c0.2,0,0.4,0,0.4,0.2c0,0.3-0.1,0.6-0.3,0.7c-0.2,0.2-0.5,0.3-0.7,0.5
			c-0.2,0.1-0.4,0.2-0.5,0.1c-0.1,0-0.4,0-0.9,0.1c-0.1,0-0.3,0-0.5-0.1c-0.2,0-0.5-0.1-0.9,0c-0.7,0.1-1.2,0-1.6-0.3
			c-0.4-0.3-0.6-0.5-0.8-0.7c-0.2-0.3-0.5-0.5-1-0.9c-0.4-0.3-0.7-0.6-0.8-0.8c-0.1-0.4-0.2-0.7-0.2-0.9l0-1.1
			c0-0.3,0.2-0.7,0.5-1.1c0.3-0.5,0.5-0.8,0.6-1c0.2-0.3,0.3-0.7,0.4-1.1c0.1-0.4,0.2-0.7,0.2-0.8c0.2-0.4,0.5-0.6,0.7-0.9
			c0.2-0.2,0.5-0.5,0.9-0.6c0.1-0.1,0.3-0.1,0.7-0.2c0.4-0.1,0.6-0.1,0.8-0.1c0.5-0.1,1,0,1.4,0.1c0.4,0.1,0.8,0.3,1.1,0.5
			c0.2,0.2,0.4,0.4,0.6,0.6c0.2,0.3,0.4,0.5,0.5,0.7c0.3,0.3,0.4,0.5,0.5,0.6C213.2,155.3,213.3,155.4,213.3,155.5L213.3,155.5z
			 M211.1,155.2c0-0.2-0.1-0.3-0.2-0.4c-0.1-0.1-0.4-0.1-1,0c-0.4,0-0.9,0.3-1.4,0.7c-0.5,0.4-0.9,0.7-1,1c0.1,0.3,0.2,0.3,0.4,0.4
			c0.4,0.1,0.7,0.2,0.8,0.2c0.1,0,0.3,0,0.6,0c0.5,0,0.8-0.1,1-0.2c0.2-0.1,0.3-0.2,0.4-0.4c0.1-0.1,0.2-0.3,0.3-0.5
			C211.1,155.6,211.1,155.4,211.1,155.2L211.1,155.2z M276.8,150c0-0.2-0.1-0.3-0.2-0.4c-0.1-0.1-0.4-0.1-1,0
			c-0.4,0-0.9,0.3-1.4,0.7c-0.5,0.4-0.9,0.7-1,1c0.1,0.3,0.2,0.3,0.4,0.4c0.4,0.1,0.7,0.2,0.8,0.2c0.1,0,0.3,0,0.6,0
			c0.5,0,0.8-0.1,1-0.2c0.2-0.1,0.3-0.2,0.4-0.4c0.1-0.1,0.2-0.3,0.3-0.5C276.8,150.4,276.8,150.2,276.8,150L276.8,150z M279,150.3
			c0,0.4-0.2,0.9-0.7,1.4c-0.5,0.5-1.1,0.8-2,0.8c-0.4,0-1,0.1-1.6,0.1c-0.6,0-1.2,0-1.8-0.2c-0.3,0.4-0.3,0.5-0.3,0.6
			c0,0.5,0,1,0.1,1.5c0.1,0.5,0.5,0.9,1.1,1.1l1,0.4c0.5,0.2,0.9,0.3,1.2,0.3c0.4,0,0.6,0.1,0.6,0.1c0,0,0.1,0.1,0.3,0
			c0.1,0,0.3,0,0.6-0.1c0.2,0,0.4,0,0.4,0.2c0,0.3-0.1,0.6-0.3,0.7c-0.2,0.2-0.5,0.3-0.7,0.5c-0.2,0.1-0.4,0.2-0.5,0.1
			c-0.1,0-0.4,0-0.9,0.1c-0.1,0-0.3,0-0.5-0.1c-0.2,0-0.5-0.1-0.9,0c-0.7,0.1-1.2,0-1.6-0.3c-0.4-0.3-0.6-0.5-0.8-0.7
			c-0.2-0.3-0.5-0.5-1-0.9c-0.4-0.3-0.7-0.6-0.8-0.8c-0.1-0.4-0.2-0.7-0.2-0.9l0-1.1c0-0.3,0.2-0.6,0.5-1.1c0.3-0.5,0.5-0.8,0.6-1
			c0.2-0.3,0.3-0.7,0.4-1.1c0.1-0.4,0.2-0.7,0.2-0.8c0.2-0.4,0.5-0.6,0.7-0.9c0.2-0.2,0.5-0.5,0.9-0.6c0.1-0.1,0.3-0.1,0.7-0.2
			c0.4-0.1,0.7-0.1,0.8-0.1c0.5,0,1,0,1.5,0.1c0.4,0.1,0.8,0.3,1.1,0.5c0.2,0.1,0.4,0.4,0.6,0.6c0.2,0.3,0.4,0.5,0.5,0.7
			c0.3,0.3,0.4,0.5,0.5,0.6C278.9,150,279,150.2,279,150.3L279,150.3z M268.3,148.2c0,0.3-0.1,0.6-0.2,1l-0.2,1
			c0,0.2-0.1,0.3-0.2,0.4c-0.1,0.1-0.2,0.2-0.4,0.4l-0.4,0.4c-0.1,0.1-0.3,0.3-0.6,0.4c-0.3,0.1-0.6,0.3-0.9,0.3
			c-0.3,0.1-0.6,0.2-0.9,0.4c-0.2,0.1-0.3,0.2-0.4,0.4c-0.1,0.2-0.1,0.4-0.2,0.7c0,0.3,0,0.5,0,0.8c0,0.3,0,0.6,0,1
			c0,0.4,0,0.7,0,0.9l0,0.8c0,0.2-0.1,0.4-0.2,0.6c-0.1,0.2-0.2,0.3-0.3,0.3c-0.2-0.1-0.2-0.2-0.3-0.4c-0.1-0.2-0.4-0.5-0.8-0.9
			c-0.4-0.4-0.7-0.7-0.7-0.9l0-0.9c0-0.5,0-1.1,0-1.7l0-2.1c0-0.4,0.1-0.7,0.1-1c0.1-0.2,0.2-0.5,0.4-0.7c0.2-0.3,0.4-0.5,0.5-0.7
			c0.1-0.1,0.2-0.2,0.4-0.3c0.2-0.1,0.3-0.1,0.4,0c0.2,0.2,0.2,0.3,0.2,0.4l0,0.8c0,0.2,0,0.5,0.1,0.7c0.2,0.1,0.2,0,0.3-0.1
			c0.2-0.2,0.4-0.4,0.6-0.6l0.6-0.5c0.3-0.3,0.6-0.5,0.9-0.7c0.3-0.2,0.7-0.3,1.1-0.4c0.2,0,0.4,0,0.6,0
			C268.3,147.9,268.3,148,268.3,148.2L268.3,148.2z M257.5,151.7c0-0.2-0.1-0.3-0.2-0.4c-0.1-0.1-0.4-0.1-1,0
			c-0.4,0-0.9,0.3-1.4,0.7c-0.5,0.4-0.9,0.7-1,1c0.1,0.3,0.2,0.3,0.4,0.4c0.4,0.1,0.7,0.2,0.8,0.2c0.1,0,0.3,0,0.6,0
			c0.5,0,0.8-0.1,1-0.2c0.2-0.1,0.3-0.2,0.4-0.4c0.1-0.1,0.2-0.3,0.3-0.5C257.4,152.1,257.5,151.9,257.5,151.7L257.5,151.7z
			 M259.6,152c0,0.4-0.2,0.9-0.7,1.4c-0.5,0.5-1.1,0.8-2,0.8c-0.4,0-1,0.1-1.6,0.1c-0.6,0-1.2,0-1.8-0.2c-0.3,0.4-0.3,0.5-0.3,0.6
			c0,0.5,0,1,0.1,1.5c0.1,0.5,0.5,0.9,1.1,1.1l1,0.4c0.5,0.2,0.9,0.3,1.2,0.3c0.4,0,0.6,0.1,0.6,0.1c0,0.1,0.1,0.1,0.3,0
			c0.1,0,0.3,0,0.5-0.1c0.2,0,0.4,0,0.4,0.2c0,0.3-0.1,0.6-0.3,0.7c-0.2,0.2-0.5,0.3-0.7,0.5c-0.2,0.1-0.4,0.2-0.5,0.1
			c-0.1,0-0.4,0-0.9,0.1c-0.1,0-0.3,0-0.5-0.1c-0.2-0.1-0.5-0.1-0.9,0c-0.7,0.1-1.2,0-1.6-0.3c-0.4-0.3-0.6-0.5-0.8-0.7
			c-0.2-0.3-0.5-0.5-1-0.9c-0.4-0.3-0.7-0.6-0.8-0.8c-0.1-0.4-0.2-0.7-0.2-0.9l0-1.1c0-0.3,0.2-0.6,0.5-1.1c0.3-0.5,0.5-0.8,0.6-1
			c0.2-0.3,0.3-0.7,0.4-1.1c0.1-0.4,0.2-0.7,0.2-0.8c0.2-0.4,0.5-0.6,0.7-0.9c0.2-0.2,0.5-0.5,0.9-0.6c0.1,0,0.3-0.1,0.7-0.2
			c0.4-0.1,0.6-0.1,0.8-0.1c0.5-0.1,1,0,1.4,0.1c0.4,0.1,0.8,0.3,1.1,0.5c0.2,0.1,0.4,0.4,0.6,0.6c0.2,0.3,0.4,0.5,0.5,0.7
			c0.3,0.3,0.4,0.5,0.5,0.6C259.6,151.8,259.6,151.9,259.6,152L259.6,152z M249,148.8c0,0.3-0.1,0.6-0.2,1.1c-0.1,0.4-0.2,0.8-0.4,1
			c-0.2,0.2-0.3,0.5-0.4,0.7l-0.3,0.7c-0.1,0.2-0.2,0.5-0.4,0.8l-0.4,0.8c-0.1,0.2-0.3,0.5-0.4,0.7c-0.1,0.2-0.2,0.5-0.3,0.8
			c0,0.3-0.2,0.6-0.5,1c-0.3,0.3-0.7,0.8-1.2,1.5c-0.5,0.6-0.8,1-0.8,1.1l-0.5,0.7c-0.1,0.2-0.3,0.2-0.6,0.2c-0.3,0-0.5-0.1-0.5-0.2
			c-0.3-0.4-0.5-0.7-0.8-1l-0.5-0.6c-0.1-0.1-0.2-0.2-0.3-0.3c-0.1-0.1-0.2-0.3-0.4-0.6c-0.1-0.1-0.3-0.5-0.5-0.9
			c-0.2-0.5-0.4-0.8-0.6-1c-0.2-0.2-0.3-0.4-0.4-0.4c-0.1-0.1-0.2-0.2-0.3-0.4c-0.1-0.2-0.2-0.7-0.2-1.6c0-0.8,0-1.3,0-1.5
			c0-0.2,0-0.4,0.1-0.5c0.1-0.1,0.2-0.2,0.4-0.2c0.3,0.4,0.3,0.6,0.5,0.8c0.2,0.3,0.4,0.4,0.7,0.6c0.3,0.1,0.5,0.4,0.7,0.7
			c0.3,0.6,0.5,1,0.7,1.3c0.1,0.2,0.4,0.6,0.6,0.9c0.1,0.1,0.3,0.3,0.5,0.6l0.6,0.7c0.3,0.1,0.3,0.1,0.4-0.1c0.3-0.6,0.6-1,0.9-1.3
			c0.3-0.3,0.4-0.5,0.5-0.7c0.1-0.2,0.2-0.5,0.3-1c0.1-0.5,0.2-0.9,0.4-1.1c0.1-0.2,0.4-0.5,0.7-0.9c0.4-0.4,0.7-0.7,0.9-0.8
			c0.4-0.3,0.7-0.7,0.8-0.9c0.1-0.3,0.2-0.5,0.5-0.6c0.1-0.1,0.3-0.1,0.6-0.1C248.9,148.3,249,148.5,249,148.8L249,148.8z
			 M236.8,152.3c0,0.1-0.1,0.4-0.2,0.9c-0.1,0.5-0.2,0.9-0.3,1.4c0,0.3,0,0.7,0,1.2l0,1l0.1,1.6c0,0.3,0,0.6,0,1.1
			c0,0.4-0.2,0.6-0.4,0.8c-0.2,0.2-0.5,0.3-0.8,0.3c-0.3,0-0.6,0-0.7-0.1c-0.1-0.1-0.2-0.3-0.2-0.5l-0.1-0.7
			c-0.1-0.4-0.1-0.8-0.1-1.3c0-0.3,0-0.6,0-1l0.1-0.9l0-0.9l0-0.5c0-0.2,0.1-0.5,0.2-0.9c0.2-0.5,0.3-0.7,0.4-0.9
			c0.1-0.1,0.3-0.3,0.6-0.6c0.3-0.3,0.5-0.4,0.7-0.4c0.2,0,0.3,0,0.5,0.1C236.7,152.1,236.8,152.2,236.8,152.3L236.8,152.3z
			 M238.2,148.4c0,0.2-0.1,0.5-0.3,0.7l-0.7,0.7c-0.1,0.1-0.3,0.3-0.6,0.5c-0.3,0.2-0.6,0.3-0.9,0.4c-0.3,0.1-0.6,0-0.9-0.1
			c-0.2-0.1-0.4-0.3-0.6-0.4l-0.6-0.6c-0.3-0.3-0.4-0.6-0.4-0.8c0-0.3,0.1-0.5,0.4-0.6c0.2-0.2,0.4-0.3,0.6-0.5
			c0.2-0.1,0.5-0.3,0.9-0.5c0.4-0.2,0.8-0.3,1.2-0.3c0.6-0.1,1,0,1.1,0.3l0.2,0.4c0.1,0.2,0.2,0.3,0.3,0.4
			C238.1,148,238.2,148.2,238.2,148.4L238.2,148.4z M232.4,150.3c0,0.3-0.1,0.6-0.2,1.1c-0.1,0.4-0.2,0.8-0.4,1
			c-0.2,0.2-0.3,0.5-0.4,0.7l-0.3,0.7c-0.1,0.2-0.2,0.5-0.4,0.8l-0.4,0.8c-0.1,0.2-0.3,0.5-0.4,0.7c-0.1,0.2-0.2,0.5-0.3,0.8
			c0,0.3-0.2,0.6-0.5,1c-0.3,0.3-0.7,0.8-1.2,1.4c-0.5,0.6-0.8,1-0.8,1.1l-0.5,0.7c-0.1,0.2-0.3,0.2-0.6,0.2c-0.3,0-0.5-0.1-0.5-0.2
			c-0.3-0.4-0.5-0.7-0.8-1l-0.5-0.6c-0.1-0.1-0.2-0.3-0.3-0.3c-0.1-0.1-0.2-0.3-0.4-0.6c-0.1-0.1-0.3-0.5-0.5-0.9
			c-0.2-0.5-0.4-0.8-0.6-1c-0.2-0.2-0.3-0.4-0.4-0.4c-0.1-0.1-0.2-0.2-0.3-0.4c-0.1-0.2-0.2-0.7-0.2-1.6c0-0.8,0-1.3,0-1.5
			c0-0.2,0-0.3,0.1-0.5c0.1-0.1,0.2-0.2,0.4-0.2c0.3,0.4,0.3,0.5,0.5,0.8c0.2,0.2,0.4,0.4,0.7,0.6c0.3,0.1,0.5,0.4,0.7,0.7
			c0.3,0.6,0.5,1,0.7,1.3c0.1,0.2,0.4,0.5,0.6,0.9c0.1,0.1,0.3,0.3,0.5,0.6l0.6,0.7c0.3,0.1,0.3,0.1,0.4-0.1c0.3-0.6,0.6-1,0.9-1.3
			c0.3-0.3,0.4-0.5,0.5-0.7c0.1-0.2,0.2-0.5,0.3-1c0.1-0.5,0.2-0.9,0.4-1.1c0.1-0.2,0.4-0.5,0.7-0.9c0.4-0.4,0.7-0.7,0.9-0.8
			c0.4-0.3,0.7-0.7,0.8-0.9c0.1-0.3,0.2-0.5,0.5-0.7c0.1-0.1,0.3-0.1,0.5-0.1C232.3,149.8,232.4,150,232.4,150.3L232.4,150.3z
			 M208,148.2c0,0.1,0.1,0.3,0.4,0.4c0.2,0.2,0.5,0.3,0.7,0.4c0.3,0.1,0.5,0.2,0.5,0.4c0,0.1,0.2,0.2,0.3,0.4
			c0.2,0.2,0.4,0.3,0.5,0.3c0.1,0.1,0.3,0.2,0.6,0.3c0.3,0.2,0.6,0.3,0.6,0.4c0.1,0,0.2,0.1,0.3,0.1c0.2,0,0.3,0,0.3,0
			c0-0.4,0-0.5-0.1-0.7c-0.1-0.2-0.2-0.3-0.3-0.4c-0.2-0.2-0.3-0.4-0.5-0.4c-0.1,0-0.3-0.2-0.4-0.3c-0.3-0.3-0.4-0.5-0.4-0.5
			c0,0-0.1-0.1-0.3-0.3c-0.2-0.2-0.5-0.3-0.8-0.3c-0.3,0-0.6,0-0.9,0c-0.2,0-0.4,0-0.5,0.1C208,148,208,148.1,208,148.2L208,148.2z
			 M194,157.4c0-0.2-0.1-0.3-0.2-0.4c-0.1-0.1-0.4-0.1-1,0c-0.4,0-0.9,0.3-1.5,0.7c-0.5,0.4-0.9,0.7-1,1c0.1,0.3,0.2,0.3,0.4,0.4
			c0.4,0.1,0.7,0.2,0.8,0.2c0.1,0,0.3,0,0.6,0c0.5,0,0.8-0.1,1-0.2c0.2-0.1,0.3-0.2,0.4-0.4c0.1-0.1,0.2-0.3,0.3-0.5
			C193.9,157.8,194,157.6,194,157.4L194,157.4z M196.1,157.8c0,0.4-0.2,0.9-0.7,1.4c-0.5,0.5-1.1,0.8-2,0.8c-0.4,0-1,0.1-1.6,0.1
			c-0.6,0-1.2,0-1.8-0.2c-0.3,0.4-0.3,0.5-0.3,0.6c0,0.5,0,1,0.1,1.5c0.1,0.5,0.5,0.9,1.1,1.1l1,0.4c0.5,0.2,0.9,0.3,1.2,0.3
			c0.4,0,0.6,0.1,0.6,0.1c0,0,0.1,0.1,0.3,0c0.1,0,0.3,0,0.5-0.1c0.2,0,0.4,0,0.4,0.2c0,0.3-0.1,0.6-0.3,0.7
			c-0.2,0.2-0.5,0.3-0.7,0.5c-0.2,0.1-0.4,0.2-0.5,0.1c-0.1,0-0.4,0-0.9,0.1c-0.1,0-0.3,0-0.5,0c-0.2-0.1-0.5-0.1-0.9,0
			c-0.7,0.1-1.2,0-1.6-0.3c-0.4-0.3-0.6-0.5-0.8-0.7c-0.2-0.3-0.5-0.5-1-0.9c-0.5-0.3-0.7-0.6-0.8-0.8c-0.1-0.4-0.2-0.7-0.2-0.9
			l0-1.1c0-0.3,0.2-0.6,0.5-1.1c0.3-0.5,0.5-0.8,0.6-1c0.2-0.3,0.3-0.7,0.4-1.1c0.1-0.4,0.2-0.7,0.2-0.8c0.2-0.4,0.5-0.6,0.7-0.9
			c0.2-0.2,0.5-0.5,0.9-0.6c0.1-0.1,0.3-0.1,0.7-0.2c0.4-0.1,0.6-0.1,0.8-0.1c0.5,0,1,0,1.4,0.1c0.4,0.1,0.8,0.3,1.1,0.5
			c0.2,0.2,0.4,0.4,0.6,0.6c0.2,0.3,0.4,0.5,0.5,0.7c0.3,0.3,0.4,0.5,0.5,0.6C196.1,157.5,196.1,157.6,196.1,157.8L196.1,157.8z
			 M185.5,155.7c0,0.3-0.1,0.6-0.2,1l-0.2,1c0,0.2-0.1,0.3-0.2,0.4c-0.1,0.1-0.2,0.2-0.4,0.4l-0.4,0.4c-0.1,0.1-0.3,0.3-0.6,0.4
			c-0.3,0.1-0.6,0.3-0.9,0.3c-0.3,0.1-0.6,0.2-0.9,0.4c-0.2,0.1-0.3,0.2-0.4,0.4c-0.1,0.2-0.1,0.4-0.2,0.7c0,0.3,0,0.5,0,0.8
			c0,0.3,0,0.6,0,1c0,0.4,0,0.7,0,0.9l0,0.8c0,0.2-0.1,0.4-0.2,0.6c-0.1,0.2-0.2,0.3-0.3,0.3c-0.2-0.1-0.2-0.2-0.3-0.4
			c-0.1-0.2-0.4-0.5-0.8-0.9c-0.4-0.4-0.7-0.7-0.7-0.9l0-0.9c0-0.5,0-1.1,0-1.7l0.1-2.1c0-0.4,0.1-0.7,0.1-1
			c0.1-0.2,0.2-0.5,0.4-0.7c0.2-0.3,0.4-0.5,0.6-0.7c0.1-0.1,0.2-0.2,0.4-0.3c0.2-0.1,0.3-0.1,0.4,0c0.2,0.2,0.2,0.3,0.2,0.4l0,0.8
			c0,0.2,0,0.5,0.1,0.7c0.2,0.1,0.2,0,0.3-0.1c0.2-0.2,0.4-0.4,0.6-0.6l0.6-0.5c0.3-0.3,0.6-0.5,0.9-0.7c0.3-0.2,0.7-0.3,1.1-0.3
			c0.2,0,0.4,0,0.6,0C185.4,155.4,185.5,155.5,185.5,155.7L185.5,155.7z M176,157.8c0,0.1-0.1,0.4-0.2,0.9c-0.1,0.5-0.2,0.9-0.3,1.4
			c0,0.3,0,0.7,0,1.2l0,1l0.1,1.6c0,0.3,0,0.6,0,1.1c0,0.4-0.2,0.6-0.4,0.8c-0.2,0.2-0.5,0.3-0.8,0.3c-0.3,0-0.6,0-0.7-0.1
			c-0.1-0.1-0.2-0.3-0.2-0.5l-0.1-0.7c-0.1-0.4-0.1-0.8-0.1-1.3c0-0.3,0-0.6,0-0.9l0.1-0.9l0-0.9l0-0.5c0-0.2,0.1-0.5,0.3-0.9
			c0.2-0.5,0.3-0.7,0.4-0.9c0.1-0.1,0.3-0.3,0.6-0.6c0.3-0.3,0.5-0.4,0.7-0.4c0.2,0,0.3,0,0.5,0.1C176,157.5,176,157.7,176,157.8
			L176,157.8z M177.5,153.9c0,0.2-0.1,0.4-0.3,0.7l-0.7,0.7c-0.1,0.1-0.3,0.3-0.6,0.5c-0.3,0.2-0.6,0.3-0.9,0.4
			c-0.3,0.1-0.6,0-0.9-0.1c-0.2-0.1-0.4-0.3-0.6-0.4l-0.6-0.6c-0.3-0.3-0.4-0.6-0.4-0.8c0-0.3,0.1-0.5,0.4-0.6
			c0.2-0.2,0.5-0.3,0.6-0.5c0.2-0.2,0.5-0.3,0.9-0.5c0.4-0.2,0.8-0.3,1.2-0.3c0.6-0.1,1,0,1.1,0.3l0.2,0.4c0.1,0.2,0.2,0.3,0.3,0.4
			C177.4,153.4,177.5,153.6,177.5,153.9L177.5,153.9z M170.2,163.4c0,0.3,0,0.8-0.1,1.2l-0.2,1c-0.1,0.4-0.3,0.7-0.5,0.9
			c-0.2,0.2-0.5,0.5-0.6,0.8c-0.1,0.2-0.3,0.4-0.5,0.5c-0.2,0.1-0.4,0.2-0.6,0.2c-0.2-0.3-0.2-0.4-0.2-0.6c0.1-0.4,0.1-0.8,0.1-1.3
			c0-0.5,0-0.9,0-1.4c0-0.5,0.1-1,0.1-1.4l0.1-0.7c0-0.1,0-0.4-0.1-0.8c-0.1-0.5-0.1-0.8-0.1-0.9c-0.1-0.7-0.3-1.1-0.4-1.2
			c-0.2-0.1-0.4-0.1-0.6-0.1c-0.2,0-0.4,0.2-0.5,0.5c-0.1,0.3-0.2,0.5-0.2,0.7c0,0.3-0.1,0.5-0.1,0.7c0,0.2,0,0.4-0.1,0.6
			c0,0.2-0.1,0.4-0.3,0.6l-0.3,0.6l-0.2,0.5c-0.1,0.3-0.2,0.5-0.2,0.7l-0.2,1.1c-0.1,0.4-0.1,0.7-0.1,0.8c0,0.2-0.2,0.4-0.6,0.6
			c-0.4,0.2-0.8,0.3-1.1,0.4c-0.3,0-0.4-0.1-0.4-0.3c0-0.2,0-0.4,0-0.6c0-0.7,0-1.3,0.1-1.8c0-0.6,0.1-1.4,0.1-2.4
			c0-1,0-1.8-0.1-2.1c-0.1-0.4-0.1-1.1-0.1-2.1c0-0.2,0.1-0.3,0.3-0.4c0.2-0.1,0.3-0.2,0.4-0.2c0.2,0.3,0.4,0.6,0.6,0.9l0.3,0.5
			c0.2,0.2,0.3,0.1,0.4,0c0.2-0.4,0.5-0.8,0.9-1.1c0.4-0.4,0.8-0.5,1.2-0.6c0.3,0,0.6,0,0.9,0.2c0.3,0.2,0.6,0.3,0.9,0.6l0.7,0.6
			c0.3,0.2,0.5,0.4,0.6,0.6c0.2,0.2,0.3,0.4,0.4,0.6c0.1,0.2,0.2,0.4,0.2,0.5c0.1,0.3,0.1,0.7,0.1,1.4
			C170.2,162.1,170.2,162.7,170.2,163.4L170.2,163.4z M158.1,160.7c0-0.2-0.1-0.3-0.2-0.4c-0.1-0.1-0.4-0.1-1,0
			c-0.4,0-0.9,0.3-1.4,0.7c-0.5,0.4-0.9,0.7-1,1c0.1,0.3,0.2,0.3,0.4,0.4c0.4,0.1,0.7,0.2,0.8,0.2c0.1,0,0.3,0,0.6,0
			c0.5,0,0.8-0.1,1-0.2c0.2-0.1,0.3-0.2,0.4-0.4c0.1-0.1,0.2-0.3,0.3-0.5C158,161.1,158.1,160.8,158.1,160.7L158.1,160.7z
			 M160.3,161c0,0.4-0.2,0.9-0.7,1.4c-0.5,0.5-1.1,0.8-2,0.8c-0.4,0-1,0.1-1.6,0.1c-0.6,0-1.2,0-1.8-0.2c-0.3,0.4-0.3,0.5-0.3,0.6
			c0,0.5,0,1,0.1,1.5c0.1,0.5,0.5,0.9,1.1,1.1l1,0.4c0.5,0.2,0.9,0.3,1.2,0.3c0.4,0,0.6,0.1,0.6,0.1c0,0,0.1,0.1,0.3,0
			c0.1,0,0.3,0,0.6-0.1c0.2,0,0.4,0,0.4,0.2c0,0.3-0.1,0.6-0.3,0.7c-0.2,0.2-0.5,0.3-0.7,0.5c-0.2,0.1-0.4,0.2-0.5,0.1
			c-0.1,0-0.4,0-0.9,0.1c-0.1,0-0.3,0-0.5,0c-0.2,0-0.5-0.1-0.9,0c-0.7,0.1-1.2,0-1.6-0.3c-0.4-0.2-0.6-0.5-0.8-0.7
			c-0.2-0.3-0.5-0.5-1-0.9c-0.4-0.3-0.7-0.6-0.8-0.8c-0.1-0.4-0.2-0.7-0.2-0.9l0-1.1c0-0.3,0.2-0.7,0.5-1.1c0.3-0.5,0.5-0.8,0.6-1
			c0.2-0.3,0.3-0.7,0.4-1.1c0.1-0.4,0.2-0.7,0.2-0.8c0.2-0.3,0.5-0.6,0.7-0.9c0.2-0.2,0.5-0.5,0.9-0.6c0.1-0.1,0.3-0.1,0.7-0.2
			c0.4-0.1,0.6-0.1,0.8-0.1c0.5,0,1,0,1.4,0.1c0.4,0.1,0.8,0.3,1.1,0.5c0.2,0.2,0.4,0.4,0.6,0.6c0.2,0.3,0.4,0.5,0.5,0.7
			c0.3,0.3,0.4,0.5,0.5,0.6C160.2,160.7,160.3,160.9,160.3,161L160.3,161z M149.6,157.7c0,0.3-0.1,0.6-0.2,1.1
			c-0.1,0.4-0.2,0.7-0.4,1c-0.2,0.2-0.3,0.5-0.4,0.7l-0.3,0.7c-0.1,0.2-0.2,0.5-0.4,0.8l-0.4,0.8c-0.1,0.2-0.3,0.5-0.4,0.7
			c-0.1,0.2-0.2,0.5-0.3,0.8c0,0.3-0.2,0.6-0.5,1c-0.3,0.3-0.7,0.8-1.2,1.4c-0.5,0.6-0.8,1-0.8,1.1l-0.5,0.7
			c-0.1,0.2-0.3,0.2-0.6,0.2c-0.3,0-0.5-0.1-0.5-0.2c-0.3-0.4-0.5-0.7-0.8-1l-0.5-0.6c-0.1-0.1-0.2-0.3-0.3-0.3
			c-0.1-0.1-0.2-0.3-0.4-0.6c-0.1-0.1-0.3-0.5-0.5-0.9c-0.2-0.5-0.4-0.8-0.6-1c-0.2-0.2-0.3-0.4-0.4-0.4c-0.1-0.1-0.2-0.2-0.3-0.4
			c-0.1-0.2-0.2-0.7-0.2-1.6c0-0.8,0-1.3,0-1.5c0-0.2,0-0.3,0.1-0.5c0.1-0.1,0.2-0.2,0.4-0.2c0.3,0.4,0.3,0.6,0.5,0.8
			c0.2,0.2,0.4,0.4,0.7,0.6c0.3,0.1,0.5,0.4,0.7,0.7c0.3,0.6,0.5,1,0.7,1.3c0.1,0.2,0.4,0.5,0.6,0.9c0.1,0.1,0.3,0.3,0.5,0.6
			l0.6,0.7c0.3,0.1,0.3,0.1,0.4-0.1c0.3-0.6,0.6-1,0.9-1.3c0.3-0.3,0.4-0.5,0.5-0.7c0.1-0.2,0.2-0.5,0.3-1c0.1-0.5,0.2-0.9,0.4-1.1
			c0.1-0.2,0.4-0.5,0.7-0.9c0.4-0.4,0.7-0.7,0.9-0.8c0.4-0.4,0.7-0.7,0.8-0.9c0.1-0.3,0.2-0.5,0.5-0.6c0.1-0.1,0.3-0.1,0.5-0.1
			C149.5,157.3,149.6,157.4,149.6,157.7L149.6,157.7z M136,162.6c0-0.2-0.1-0.3-0.2-0.4c-0.1-0.1-0.4-0.1-1,0
			c-0.4,0-0.9,0.3-1.4,0.7c-0.5,0.4-0.9,0.7-1,1c0.1,0.3,0.2,0.3,0.4,0.4c0.4,0.1,0.7,0.2,0.8,0.2c0.1,0,0.3,0,0.6,0
			c0.5,0,0.8-0.1,1-0.2c0.2-0.1,0.3-0.2,0.4-0.4c0.1-0.1,0.2-0.3,0.3-0.5C135.9,163,136,162.8,136,162.6L136,162.6z M138.2,163
			c0,0.4-0.2,0.9-0.7,1.4c-0.5,0.5-1.1,0.8-2,0.8c-0.4,0-1,0.1-1.6,0.1c-0.6,0-1.2,0-1.8-0.2c-0.3,0.4-0.3,0.5-0.3,0.6
			c0,0.5,0,1,0.1,1.5c0.1,0.5,0.5,0.9,1.1,1.1l1,0.4c0.5,0.2,0.9,0.3,1.2,0.3c0.4,0,0.6,0.1,0.6,0.1c0,0,0.1,0.1,0.3,0
			c0.1,0,0.3,0,0.6-0.1c0.2,0,0.4,0,0.4,0.2c0,0.3-0.1,0.6-0.3,0.7c-0.2,0.2-0.5,0.3-0.7,0.5c-0.2,0.1-0.4,0.2-0.5,0.1
			c-0.1,0-0.4,0-0.9,0.1c-0.1,0-0.3,0-0.5-0.1c-0.2,0-0.5-0.1-0.9,0c-0.7,0.1-1.2,0-1.6-0.3c-0.4-0.3-0.6-0.5-0.8-0.7
			c-0.2-0.3-0.5-0.5-1-0.9c-0.4-0.3-0.7-0.6-0.8-0.8c-0.1-0.4-0.2-0.7-0.2-0.9l0-1.1c0-0.3,0.2-0.7,0.5-1.1c0.3-0.5,0.5-0.8,0.6-1
			c0.2-0.3,0.3-0.7,0.4-1.1c0.1-0.4,0.2-0.7,0.2-0.8c0.2-0.3,0.5-0.6,0.7-0.9c0.2-0.2,0.5-0.5,0.9-0.6c0.1-0.1,0.3-0.1,0.7-0.2
			c0.4-0.1,0.6-0.1,0.8-0.1c0.5-0.1,1,0,1.4,0.1c0.4,0.1,0.8,0.3,1.1,0.5c0.2,0.2,0.4,0.4,0.6,0.6c0.2,0.3,0.4,0.5,0.5,0.7
			c0.3,0.3,0.4,0.5,0.5,0.6C138.1,162.7,138.2,162.9,138.2,163L138.2,163z M127.5,160.9c0,0.3-0.1,0.6-0.2,1l-0.2,1
			c0,0.2-0.1,0.3-0.2,0.4c-0.1,0.1-0.2,0.2-0.4,0.4l-0.4,0.4c-0.1,0.1-0.3,0.3-0.6,0.4c-0.3,0.1-0.6,0.3-0.9,0.3
			c-0.3,0.1-0.6,0.2-0.9,0.4c-0.2,0.1-0.3,0.2-0.4,0.4c-0.1,0.2-0.1,0.4-0.2,0.7c0,0.3,0,0.5,0,0.8c0,0.3,0,0.6,0,1
			c0,0.4,0,0.7,0,0.9l0,0.8c0,0.2-0.1,0.4-0.2,0.6c-0.1,0.2-0.2,0.3-0.3,0.3c-0.2-0.1-0.2-0.2-0.3-0.3c-0.1-0.2-0.4-0.5-0.8-0.9
			c-0.4-0.4-0.7-0.7-0.7-0.9l0-0.9c0-0.5,0-1.1,0-1.7l0.1-2.1c0-0.4,0.1-0.7,0.1-1c0.1-0.2,0.2-0.5,0.4-0.7c0.2-0.3,0.4-0.5,0.6-0.7
			c0.1-0.1,0.2-0.2,0.4-0.3c0.2-0.1,0.3-0.1,0.4,0c0.2,0.2,0.2,0.3,0.2,0.4l0,0.8c0,0.2,0,0.5,0.1,0.7c0.2,0.1,0.2,0,0.3-0.1
			c0.2-0.2,0.4-0.4,0.6-0.6l0.6-0.5c0.3-0.3,0.6-0.5,0.9-0.7c0.3-0.2,0.7-0.3,1.1-0.4c0.2,0,0.4,0,0.6,0
			C127.4,160.6,127.5,160.7,127.5,160.9L127.5,160.9z M115.5,166.3c0-0.4-0.1-0.7-0.3-0.8c-0.2-0.1-0.5-0.2-0.8-0.2
			c-0.5,0-0.7,0.1-0.8,0.2l-0.3,1c0,0.2-0.2,0.4-0.3,0.7l-0.3,0.5c-0.1,0.2-0.3,0.5-0.4,1c-0.1,0.2-0.1,0.4-0.1,0.6
			c0,0.2,0.1,0.2,0.3,0.1c0.3-0.2,0.7-0.3,1.2-0.5c0.5-0.2,0.9-0.4,1.1-0.6c0.2-0.1,0.3-0.4,0.4-0.7
			C115.4,167.2,115.5,166.8,115.5,166.3L115.5,166.3z M117.8,165.3c0,0.2,0,0.6-0.1,1.1c-0.1,0.5-0.2,0.9-0.3,1.2
			c-0.1,0.3-0.3,0.7-0.5,1c-0.2,0.3-0.5,0.6-1,0.9c-0.3,0.2-0.7,0.4-1.1,0.6l-1,0.4l-0.5,0.2c-0.1,0-0.2,0.2-0.5,0.4
			c-0.2,0.2-0.3,0.3-0.5,0.4c-0.1,0.1-0.3,0.2-0.4,0.4c-0.2,0.3-0.4,0.6-0.6,0.8c-0.2,0.3-0.4,0.5-0.5,0.7l-0.3,0.5
			c-0.1,0.2-0.2,0.2-0.4,0.3c-0.2,0-0.3-0.1-0.4-0.2c0-0.2-0.1-0.3-0.1-0.4c0-0.3,0-0.5,0-0.7c0-0.2,0-0.6,0-1c0-0.2,0-0.7,0.1-1.7
			c0.1-1,0.2-1.7,0.2-2.2c0-0.1,0.1-0.3,0.3-0.6c0.2-0.3,0.3-0.6,0.4-0.9c0.1-0.2,0.1-0.6,0.2-1.1l0.2-1.1c0-0.2,0.1-0.5,0.1-0.9
			l0.2-1c0-0.1,0.1-0.3,0.3-0.5c0.2-0.2,0.3-0.5,0.5-0.9c0.1-0.2,0.1-0.3,0.2-0.3c0.1,0,0.2-0.1,0.5-0.2c0.1-0.1,0.3,0,0.4,0.1
			c0.1,0.1,0.2,0.3,0.2,0.5c0,0.2,0,0.4,0,0.7c0,0.3,0,0.6,0,0.8c0,0.1,0,0.2,0,0.4c0.4,0,0.7-0.1,0.9-0.2c0.2,0,0.5-0.1,0.8-0.1
			c0.6-0.1,1.2,0.2,1.8,0.8C117.5,164.3,117.8,164.8,117.8,165.3L117.8,165.3z"/>
	</g>
</g>
</svg>
