<svg xmlns="http://www.w3.org/2000/svg" viewBox="0 0 15.313 15.291">
  <defs>
    <style>
      .cls-1 {
        fill: #fff;
      }
    </style>
  </defs>
  <g id="call-answer" transform="matrix(0.978, 0.208, -0.208, 0.978, 2.679, 0)">
    <g id="Group_4" data-name="Group 4" transform="translate(0 0)">
      <g id="Group_3" data-name="Group 3" transform="translate(0)">
        <path id="Path_2" data-name="Path 2" class="cls-1" d="M12.626,10.193,10.632,8.2a1.04,1.04,0,0,0-1.466.028l-1,1-.2-.11A10,10,0,0,1,5.545,7.372,10.056,10.056,0,0,1,3.793,4.95c-.037-.067-.073-.132-.108-.194l.674-.673.332-.332a1.039,1.039,0,0,0,.027-1.466l-1.995-2A1.039,1.039,0,0,0,1.257.317L.695.882.71.9a3.251,3.251,0,0,0-.463.817,3.388,3.388,0,0,0-.206.829C-.223,4.727.775,6.723,3.483,9.431c3.743,3.743,6.76,3.46,6.89,3.446a3.37,3.37,0,0,0,.831-.209,3.24,3.24,0,0,0,.814-.461l.012.011.57-.558A1.041,1.041,0,0,0,12.626,10.193Z"/>
      </g>
    </g>
  </g>
</svg>
