<?xml version="1.0" encoding="utf-8"?>
<!-- Generator: Adobe Illustrator 23.0.0, SVG Export Plug-In . SVG Version: 6.00 Build 0)  -->
<svg version="1.1" id="Livello_1" xmlns="http://www.w3.org/2000/svg" xmlns:xlink="http://www.w3.org/1999/xlink" x="0px" y="0px"
	 viewBox="0 0 28.6 40.9" style="enable-background:new 0 0 28.6 40.9;" xml:space="preserve">

<g id="Group_36" transform="translate(-212 -2014.885)">
	<circle fill="#FFFFFF" id="Ellipse_4" class="st0" cx="226.5" cy="2029.6" r="6.5"/>
	<path fill="#EA1729" id="placeholder" class="st1" d="M236.3,2019.3c-5.5-5.5-14.5-5.5-20,0c0,0,0,0,0,0c-4.9,4.9-5.6,14.2-1.3,19.9l11.3,16.3
		l11.3-16.3C241.8,2033.5,241.2,2024.2,236.3,2019.3z M226.4,2034.3c-2.8,0-5.2-2.3-5.2-5.2c0-2.8,2.3-5.2,5.2-5.2
		c2.8,0,5.2,2.3,5.2,5.2C231.6,2032,229.3,2034.3,226.4,2034.3z"/>
</g>
</svg>
