<svg id="twitter-logo-silhouette" xmlns="http://www.w3.org/2000/svg" viewBox="0 0 19.409 15.766">
  <defs>
    <style>
      .cls-1 {
        fill: #fff;
      }
    </style>
  </defs>
  <g id="Group_10" data-name="Group 10" transform="translate(0 0)">
    <path id="Path_4" data-name="Path 4" class="cls-1" d="M19.41,59.306a7.951,7.951,0,0,1-2.286.627,4,4,0,0,0,1.75-2.2,8.027,8.027,0,0,1-2.53.967,3.985,3.985,0,0,0-6.785,3.63,11.3,11.3,0,0,1-8.206-4.16,3.986,3.986,0,0,0,1.232,5.315,3.982,3.982,0,0,1-1.8-.5v.05a3.986,3.986,0,0,0,3.193,3.9,4.033,4.033,0,0,1-1.049.139A3.822,3.822,0,0,1,2.177,67,3.984,3.984,0,0,0,5.9,69.768a7.988,7.988,0,0,1-4.945,1.7A8.462,8.462,0,0,1,0,71.415a11.254,11.254,0,0,0,6.1,1.791A11.25,11.25,0,0,0,17.432,61.879l-.013-.515A7.951,7.951,0,0,0,19.41,59.306Z" transform="translate(-0.001 -57.441)"/>
  </g>
</svg>
