<svg id="youtube" xmlns="http://www.w3.org/2000/svg" viewBox="0 0 24.494 17.238">
  <defs>
    <style>
      .cls-1 {
        fill: #fff;
      }
    </style>
  </defs>
  <path id="XMLID_823_" class="cls-1" d="M23.539,47.4c-.884-1.051-2.517-1.48-5.634-1.48H6.588c-3.189,0-4.849.456-5.73,1.575C0,48.583,0,50.191,0,52.416v4.241c0,4.31,1.019,6.5,6.588,6.5H17.905c2.7,0,4.2-.378,5.171-1.306.994-.951,1.418-2.5,1.418-5.193V52.416C24.494,50.069,24.427,48.452,23.539,47.4Zm-7.814,7.725-5.139,2.686a.79.79,0,0,1-1.156-.7V51.753a.79.79,0,0,1,1.154-.7l5.139,2.668a.79.79,0,0,1,0,1.4Z" transform="translate(0 -45.917)"/>
</svg>
