<svg xmlns="http://www.w3.org/2000/svg" viewBox="0 0 33.01 9.56"><defs><style>.ff3cc097-ac2b-4de0-a608-e58c46847a96{fill:#344093;}</style></defs><title>z202</title><g id="f1b4dff1-4650-42a2-b22f-77644ea3d8d6" data-name="Livello 2"><g id="e5a41d77-7dfc-49ad-b6a7-b9fed4c8b638" data-name="Livello 1"><path class="ff3cc097-ac2b-4de0-a608-e58c46847a96" d="M3.65,7.5H6.24V9.31H0L2.9,5H.4V3.16H6.53Z"/><path class="ff3cc097-ac2b-4de0-a608-e58c46847a96" d="M15.18,9.31H7.9L10.14,7a19.34,19.34,0,0,0,1.39-1.56,7.73,7.73,0,0,0,.75-1.09,2.53,2.53,0,0,0,.31-.72,2.23,2.23,0,0,0,.06-.47,1.07,1.07,0,0,0-.07-.39.9.9,0,0,0-.2-.34.92.92,0,0,0-.31-.24,1,1,0,0,0-.44-.09.93.93,0,0,0-.75.31,1.16,1.16,0,0,0-.27.78,3.46,3.46,0,0,0,0,.38H8.08a3.89,3.89,0,0,1,.25-1.44A3.4,3.4,0,0,1,9.06,1,3,3,0,0,1,10.17.28,3.8,3.8,0,0,1,11.58,0,4,4,0,0,1,13,.26a3.29,3.29,0,0,1,1.11.68,3.07,3.07,0,0,1,1,2.31,3,3,0,0,1-.31,1.38,4.91,4.91,0,0,1-1,1.29l-1.5,1.4h2.93Z"/><path class="ff3cc097-ac2b-4de0-a608-e58c46847a96" d="M16.72,4.78a6.42,6.42,0,0,1,.28-2,4.55,4.55,0,0,1,.79-1.5A3.54,3.54,0,0,1,19,.34,3.5,3.5,0,0,1,20.56,0,3.44,3.44,0,0,1,22.1.34a3.48,3.48,0,0,1,1.22,1,4.73,4.73,0,0,1,.78,1.5,6.42,6.42,0,0,1,.28,2,6.36,6.36,0,0,1-.28,2,4.79,4.79,0,0,1-.78,1.51,3.48,3.48,0,0,1-1.22,1,3.44,3.44,0,0,1-1.54.34A3.5,3.5,0,0,1,19,9.22a3.54,3.54,0,0,1-1.21-1A4.61,4.61,0,0,1,17,6.74,6.36,6.36,0,0,1,16.72,4.78Zm2.32,0a5.22,5.22,0,0,0,.11,1.09,3.14,3.14,0,0,0,.31.85,1.65,1.65,0,0,0,.47.56,1.07,1.07,0,0,0,.63.2,1,1,0,0,0,.61-.2,1.57,1.57,0,0,0,.48-.56,3.14,3.14,0,0,0,.3-.85,5.46,5.46,0,0,0,0-2.18,3,3,0,0,0-.3-.85,1.53,1.53,0,0,0-.48-.55,1,1,0,0,0-.61-.2,1,1,0,0,0-.63.2,1.61,1.61,0,0,0-.47.55,3,3,0,0,0-.31.85A5.22,5.22,0,0,0,19,4.78Z"/><path class="ff3cc097-ac2b-4de0-a608-e58c46847a96" d="M33,9.31H25.73L28,7a19.34,19.34,0,0,0,1.39-1.56,7.73,7.73,0,0,0,.75-1.09,2.53,2.53,0,0,0,.31-.72,2.23,2.23,0,0,0,.06-.47,1.07,1.07,0,0,0-.07-.39,1,1,0,0,0-.19-.34,1.08,1.08,0,0,0-.32-.24,1,1,0,0,0-.44-.09.93.93,0,0,0-.75.31,1.16,1.16,0,0,0-.27.78,2.21,2.21,0,0,0,0,.38H25.91a3.69,3.69,0,0,1,.26-1.44A3.23,3.23,0,0,1,26.89,1,3,3,0,0,1,28,.28,3.8,3.8,0,0,1,29.41,0a4,4,0,0,1,1.4.24,3.29,3.29,0,0,1,1.11.68,3,3,0,0,1,.73,1,3.11,3.11,0,0,1,.27,1.29,3,3,0,0,1-.32,1.38,4.71,4.71,0,0,1-1,1.29l-1.5,1.4H33Z"/></g></g></svg>