<svg xmlns="http://www.w3.org/2000/svg" viewBox="0 0 32.93 9.56"><defs><style>.a495e029-361c-46a3-85fe-fd5762185616{fill:#344093;}</style></defs><title>z208</title><g id="bf84df3a-5f3a-4fab-98b7-a72c2a8a083e" data-name="Livello 2"><g id="ea44adfd-e1da-40a5-b20e-77340d65fc31" data-name="Livello 1"><path class="a495e029-361c-46a3-85fe-fd5762185616" d="M3.65,7.5H6.24V9.31H0L2.9,5H.4V3.16H6.53Z"/><path class="a495e029-361c-46a3-85fe-fd5762185616" d="M15.18,9.31H7.9L10.14,7a19.34,19.34,0,0,0,1.39-1.56,7.73,7.73,0,0,0,.75-1.09,2.53,2.53,0,0,0,.31-.72,2.23,2.23,0,0,0,.06-.47,1.07,1.07,0,0,0-.07-.39.9.9,0,0,0-.2-.34.92.92,0,0,0-.31-.24,1,1,0,0,0-.44-.09.93.93,0,0,0-.75.31,1.16,1.16,0,0,0-.27.78,3.46,3.46,0,0,0,0,.38H8.08a3.89,3.89,0,0,1,.25-1.44A3.4,3.4,0,0,1,9.06,1,3,3,0,0,1,10.17.28,3.8,3.8,0,0,1,11.58,0,4,4,0,0,1,13,.26a3.29,3.29,0,0,1,1.11.68,3.07,3.07,0,0,1,1,2.31,3,3,0,0,1-.31,1.38,4.91,4.91,0,0,1-1,1.29l-1.5,1.4h2.93Z"/><path class="a495e029-361c-46a3-85fe-fd5762185616" d="M16.72,4.78a6.42,6.42,0,0,1,.28-2,4.55,4.55,0,0,1,.79-1.5A3.54,3.54,0,0,1,19,.34,3.5,3.5,0,0,1,20.56,0,3.44,3.44,0,0,1,22.1.34a3.48,3.48,0,0,1,1.22,1,4.73,4.73,0,0,1,.78,1.5,6.42,6.42,0,0,1,.28,2,6.36,6.36,0,0,1-.28,2,4.79,4.79,0,0,1-.78,1.51,3.48,3.48,0,0,1-1.22,1,3.44,3.44,0,0,1-1.54.34A3.5,3.5,0,0,1,19,9.22a3.54,3.54,0,0,1-1.21-1A4.61,4.61,0,0,1,17,6.74,6.36,6.36,0,0,1,16.72,4.78Zm2.32,0a5.22,5.22,0,0,0,.11,1.09,3.14,3.14,0,0,0,.31.85,1.65,1.65,0,0,0,.47.56,1.07,1.07,0,0,0,.63.2,1,1,0,0,0,.61-.2,1.57,1.57,0,0,0,.48-.56,3.14,3.14,0,0,0,.3-.85,5.46,5.46,0,0,0,0-2.18,3,3,0,0,0-.3-.85,1.53,1.53,0,0,0-.48-.55,1,1,0,0,0-.61-.2,1,1,0,0,0-.63.2,1.61,1.61,0,0,0-.47.55,3,3,0,0,0-.31.85A5.22,5.22,0,0,0,19,4.78Z"/><path class="a495e029-361c-46a3-85fe-fd5762185616" d="M27.8,4.54a2.05,2.05,0,0,1-1.41-2,2.17,2.17,0,0,1,.23-1,2.33,2.33,0,0,1,.63-.8,2.65,2.65,0,0,1,1-.52,4.47,4.47,0,0,1,2.51,0,2.74,2.74,0,0,1,1,.52,2.33,2.33,0,0,1,.63.8,2.29,2.29,0,0,1,.23,1,2.57,2.57,0,0,1-.08.65,1.41,1.41,0,0,1-.24.51,2.16,2.16,0,0,1-.46.44,4.05,4.05,0,0,1-.7.4,2.45,2.45,0,0,1,1.85,2.32,2.29,2.29,0,0,1-.26,1.07,2.54,2.54,0,0,1-.72.85,3.64,3.64,0,0,1-1.09.57,4.67,4.67,0,0,1-1.39.2,4.26,4.26,0,0,1-1.36-.2A3.44,3.44,0,0,1,27,8.8a2.72,2.72,0,0,1-.73-.86A2.16,2.16,0,0,1,26,6.86,2.38,2.38,0,0,1,27.8,4.54Zm.59,2a1.07,1.07,0,0,0,.09.43,1.15,1.15,0,0,0,.22.35,1.09,1.09,0,0,0,.35.24,1,1,0,0,0,.42.09,1,1,0,0,0,.42-.09,1.16,1.16,0,0,0,.34-.24A1.09,1.09,0,0,0,30.47,7a1.16,1.16,0,0,0,.08-.42,1,1,0,0,0-.32-.78,1,1,0,0,0-.76-.31,1,1,0,0,0-.77.31A1.11,1.11,0,0,0,28.39,6.58Zm.09-4a1,1,0,0,0,1,1,.87.87,0,0,0,.4-.09,1,1,0,0,0,.31-.22A1,1,0,0,0,30.39,3a1,1,0,0,0,.08-.37,1,1,0,0,0-.29-.7.94.94,0,0,0-.71-.3,1,1,0,0,0-.71.29A1,1,0,0,0,28.48,2.57Z"/></g></g></svg>